<svg xmlns="http://www.w3.org/2000/svg" xmlns:xlink="http://www.w3.org/1999/xlink" version="1.1" width="1000" height="1000" viewBox="0 0 1000 1000" xml:space="preserve">
<desc>Created with Fabric.js 3.5.0</desc>
<defs>
</defs>
<rect x="0" y="0" width="100%" height="100%" fill="#ffffff"/>
<g transform="matrix(0.1022 0 0 0.1022 89.6049 138.2719)" id="241264">
<g style="" vector-effect="non-scaling-stroke">
		<g transform="matrix(1 0 0 1 0.1413 -0.3826)">
<path style="stroke: none; stroke-width: 1; stroke-dasharray: none; stroke-linecap: butt; stroke-dashoffset: 0; stroke-linejoin: miter; stroke-miterlimit: 4; is-custom-font: none; font-file-url: none; fill: rgb(212,0,0); fill-rule: nonzero; opacity: 1;" transform=" translate(28.7181, -375.1058)" d="M 0 0 C 10.30283352 7.16310141 15.78305729 17.27701329 21.703125 28.11328125 C 26.4139215 36.63420638 31.20511602 45.09548471 36.140625 53.48828125 C 40.9055205 61.60211113 45.56475202 69.76638841 50.140625 77.98828125 C 55.23893424 87.1455144 60.45370555 96.22521295 65.75439453 105.26660156 C 70.22341235 112.89626935 74.63424131 120.55805611 79.015625 128.23828125 C 79.34898865 128.82259918 79.68235229 129.40691711 80.02581787 130.00894165 C 81.7206599 132.98020105 83.41470484 135.95191397 85.10839844 138.92382812 C 88.11543363 144.19939172 91.12940437 149.47099185 94.14291382 154.74285889 C 95.80770436 157.65528756 97.47225465 160.5678535 99.13671875 163.48046875 C 99.46652237 164.05757599 99.79632599 164.63468323 100.13612366 165.22927856 C 102.14723953 168.74878504 104.15719878 172.26894937 106.16629028 175.78961182 C 112.96540458 187.7040427 119.77815673 199.61016929 126.640625 211.48828125 C 133.84275294 223.95430348 140.98892176 236.45189369 148.12451172 248.95605469 C 150.12998314 252.47008804 152.137007 255.98323283 154.14453125 259.49609375 C 154.63922913 260.3617395 154.63922913 260.3617395 155.1439209 261.24487305 C 156.14279595 262.99269082 157.14170389 264.7404898 158.140625 266.48828125 C 161.81727682 272.92124229 165.49388907 279.35422297 169.16629028 285.78961182 C 175.96540458 297.7040427 182.77815673 309.61016929 189.640625 321.48828125 C 196.84275294 333.95430348 203.98892176 346.45189369 211.12451172 358.95605469 C 213.12998314 362.47008804 215.13701031 365.98323094 217.14453125 369.49609375 C 217.6392971 370.36187546 217.6392971 370.36187546 218.14405823 371.24514771 C 219.80787859 374.1565221 221.47187794 377.06779413 223.13598633 379.97900391 C 226.15723753 385.26481953 229.17736305 390.55126245 232.19192505 395.84089661 C 233.88241575 398.80711519 235.57378435 401.77283245 237.265625 404.73828125 C 237.59818298 405.32122955 237.93074097 405.90417786 238.27337646 406.50479126 C 242.88850547 414.59074094 247.55684312 422.64400896 252.265625 430.67578125 C 257.59208911 439.7625453 262.76630336 448.92618826 267.88891602 458.12915039 C 272.47631322 466.3510939 277.19667156 474.48894839 281.9609375 482.609375 C 286.47256949 490.3104381 290.87503329 498.06850104 295.24853516 505.84863281 C 299.12388396 512.72746483 303.08283011 519.55352307 307.078125 526.36328125 C 312.46876272 535.55485644 317.70869404 544.82162758 322.89038086 554.13232422 C 327.44865728 562.3027597 332.14431206 570.38589473 336.88183594 578.45336914 C 341.14238533 585.72792903 345.28881419 593.06068521 349.390625 600.42578125 C 353.56970972 607.92859249 357.80148384 615.38756146 362.18603516 622.77197266 C 366.8191729 630.59398472 371.31642851 638.49397642 375.8112793 646.39599609 C 376.50301732 647.6116964 377.19483103 648.82735364 377.88671875 650.04296875 C 378.23324997 650.65183929 378.57978119 651.26070984 378.93681335 651.88803101 C 381.08788118 655.66093249 383.2598459 659.42090388 385.44952393 663.17152405 C 386.89975105 665.65657419 388.34307522 668.14560326 389.78607178 670.63485718 C 390.7923737 672.3643373 391.80836789 674.08816675 392.82470703 675.81176758 C 399.25710492 686.92763574 404.07548923 697.08164473 403.703125 710.11328125 C 403.68580322 711.11456055 403.66848145 712.11583984 403.65063477 713.14746094 C 403.42376898 720.21551364 402.66581872 726.24900033 399.140625 732.48828125 C 398.63144531 733.42671875 398.12226562 734.36515625 397.59765625 735.33203125 C 391.17503043 746.26666194 381.9517304 753.69628006 369.78721964 757.55088478 C 363.88200811 758.97302868 357.929806 758.76698875 351.8888607 758.74834347 C 350.53989405 758.75134289 349.1909291 758.75521462 347.84196717 758.7598758 C 344.13368871 758.77014941 340.42550578 758.76800376 336.71721929 758.76382044 C 332.68328909 758.76145383 328.6493823 758.77062381 324.61546099 758.77830464 C 317.54482591 758.79015141 310.47421663 758.79451741 303.40357208 758.79398346 C 292.88903355 758.79319032 282.37452761 758.80373906 271.85999778 758.81639903 C 250.89363223 758.84114163 229.92727459 758.84992204 208.96089645 758.85493552 C 207.33209606 758.85532728 207.33209606 758.85532728 205.67039061 758.85572696 C 204.03833287 758.85611737 204.03833287 758.85611737 202.37330428 758.85651567 C 190.31797661 758.85959752 178.26265113 758.8661021 166.20732498 758.87272835 C 129.79875737 758.89237629 93.39019213 758.90878072 56.98161888 758.91160488 C 55.81700618 758.91169894 54.65239348 758.911793 53.45248949 758.91188991 C 48.73278365 758.9122684 44.01307782 758.91263239 39.29337198 758.91299289 C 35.74099147 758.91326461 32.18861097 758.91354129 28.63623047 758.91381836 C 27.46238814 758.91390638 26.28854582 758.9139944 25.07913251 758.91408509 C -11.8048532 758.91699063 -48.6887865 758.93908726 -85.57275391 758.9753418 C -127.0050175 759.01606591 -168.43724538 759.03976343 -209.86953008 759.04006439 C -214.28741352 759.04016122 -218.70529695 759.04032794 -223.12318039 759.04054451 C -224.21098704 759.04058862 -225.2987937 759.04063274 -226.41956419 759.04067819 C -243.92700026 759.04179815 -261.43438383 759.05920853 -278.941803 759.08236383 C -296.53730811 759.10520394 -314.13274229 759.10943312 -331.72825678 759.09481453 C -342.18115752 759.08666196 -352.63383486 759.09235802 -363.08670852 759.11799538 C -370.07190271 759.13374513 -377.05693828 759.13127191 -384.04212866 759.11408865 C -388.02025328 759.10481478 -391.99794757 759.10332865 -395.97603865 759.12405472 C -399.6021286 759.14278571 -403.2274382 759.1380871 -406.85349908 759.11546378 C -408.75740831 759.1094096 -410.66134884 759.12765517 -412.56516761 759.14717785 C -425.22701526 759.01881715 -436.62108823 755.3200834 -445.859375 746.48828125 C -446.48328125 745.89273438 -447.1071875 745.2971875 -447.75 744.68359375 C -457.41766686 734.55356021 -461.24757984 722.24932424 -461.15795898 708.54833984 C -460.70032833 691.48327303 -450.87279115 677.34158683 -442.4675293 663.06958008 C -438.16604006 655.76206782 -433.97945049 648.39943153 -429.859375 640.98828125 C -424.76154301 631.83078838 -419.5462881 622.75133873 -414.24560547 613.70996094 C -409.77658765 606.08029315 -405.36575869 598.41850639 -400.984375 590.73828125 C -400.48432953 589.86180435 -400.48432953 589.86180435 -399.97418213 588.96762085 C -398.2793401 585.99636145 -396.58529516 583.02464853 -394.89160156 580.05273438 C -391.88466756 574.7773483 -388.87077883 569.50593687 -385.85736084 564.23425293 C -384.1910757 561.31909467 -382.52524873 558.40367462 -380.859375 555.48828125 C -380.19271052 554.32161333 -379.52604386 553.15494666 -378.859375 551.98828125 C -378.364375 551.12203125 -378.364375 551.12203125 -377.859375 550.23828125 C -374.859375 544.98828126 -374.859375 544.98828126 -373.85940552 543.23834229 C -373.19262836 542.07147718 -372.52585997 540.90460706 -371.85910034 539.73773193 C -370.19419594 536.82406034 -368.52914014 533.91047547 -366.86376953 530.99707031 C -363.84257358 525.71143234 -360.82254701 520.42514222 -357.80807495 515.13566589 C -356.11758425 512.16944731 -354.42621565 509.20373005 -352.734375 506.23828125 C -352.40181702 505.65533295 -352.06925903 505.07238464 -351.72662354 504.47177124 C -347.11149453 496.38582156 -342.44315688 488.33255354 -337.734375 480.30078125 C -332.40708558 471.21260925 -327.23173962 462.04771966 -322.10888672 452.84301758 C -317.55094352 444.67293939 -312.85544721 436.59025783 -308.11816406 428.52319336 C -303.85761467 421.24863347 -299.71118581 413.91587729 -295.609375 406.55078125 C -291.43029028 399.04797001 -287.19851616 391.58900104 -282.81396484 384.20458984 C -278.88341463 377.56873896 -275.05609384 370.87474507 -271.234375 364.17578125 C -270.89392151 363.57905609 -270.55346802 362.98233093 -270.20269775 362.36752319 C -268.45318422 359.3005516 -266.70445293 356.23313484 -264.95605469 353.16552734 C -261.59550106 347.27025288 -258.22702823 341.37950186 -254.859375 335.48828125 C -253.52855754 333.16020671 -252.19781127 330.8320915 -250.8671875 328.50390625 C -250.53757019 327.92717667 -250.20795288 327.35044708 -249.86834717 326.75624084 C -247.84613938 323.21725381 -245.8262536 319.67695206 -243.80807495 316.13566589 C -242.11758425 313.16944731 -240.42621565 310.20373005 -238.734375 307.23828125 C -238.40181702 306.65533295 -238.06925903 306.07238464 -237.72662354 305.47177124 C -233.11149453 297.38582156 -228.44315688 289.33255354 -223.734375 281.30078125 C -218.40708558 272.21260925 -213.23173962 263.04771966 -208.10888672 253.84301758 C -203.55094352 245.67293939 -198.85544721 237.59025783 -194.11816406 229.52319336 C -189.85761467 222.24863347 -185.71118581 214.91587729 -181.609375 207.55078125 C -177.43029028 200.04797001 -173.19851616 192.58900104 -168.81396484 185.20458984 C -164.88341463 178.56873896 -161.05609384 171.87474507 -157.234375 165.17578125 C -156.72369476 164.28069351 -156.72369476 164.28069351 -156.20269775 163.36752319 C -154.45318422 160.3005516 -152.70445293 157.23313484 -150.95605469 154.16552734 C -147.92603992 148.85010296 -144.88940403 143.53846334 -141.85305786 138.22665405 C -140.18960875 135.316576 -138.52640246 132.40635921 -136.86328125 129.49609375 C -136.53345749 128.91895126 -136.20363373 128.34180878 -135.86381531 127.74717712 C -133.85271978 124.22770625 -131.8427809 120.70757752 -129.83370972 117.18695068 C -122.42097837 104.1972477 -114.98326412 91.22256081 -107.50146484 78.27246094 C -103.29139423 70.98117866 -99.10043043 63.6791738 -94.92483521 56.36810303 C -93.92635831 54.62112544 -92.92612957 52.87516112 -91.92553711 51.12939453 C -88.81207194 45.69230829 -85.71621506 40.24708287 -82.67628479 34.76846313 C -81.27033597 32.23726865 -79.85488229 29.7114485 -78.43869019 27.18597412 C -77.45840464 25.42876249 -76.49174497 23.66397069 -75.52563477 21.89892578 C -67.90679546 8.33443559 -58.56849655 -1.66450876 -43.671875 -6.94921875 C -28.37380355 -11.14121698 -13.29219399 -8.63992609 0 0 Z" stroke-linecap="round"/>
</g>
		<g transform="matrix(1 0 0 1 0.5 25.5)">
<path style="stroke: none; stroke-width: 1; stroke-dasharray: none; stroke-linecap: butt; stroke-dashoffset: 0; stroke-linejoin: miter; stroke-miterlimit: 4; is-custom-font: none; font-file-url: none; fill: rgb(254,253,253); fill-rule: nonzero; opacity: 1;" transform=" translate(-0.5, -256.5)" d="M 0 0 C 2.61712286 2.36271395 4.17321749 4.83435853 5.86328125 7.91796875 C 6.41306641 8.91248047 6.96285156 9.90699219 7.52929688 10.93164062 C 8.11775391 12.00607422 8.70621094 13.08050781 9.3125 14.1875 C 10.57760754 16.47366409 11.84458199 18.75879592 13.11328125 21.04296875 C 13.43660431 21.62537323 13.75992737 22.20777771 14.0930481 22.80783081 C 17.31083583 28.58858251 20.64608171 34.29753233 24 40 C 28.76495014 48.1137973 33.42412772 56.27810842 38 64.5 C 43.09830924 73.65723315 48.31308055 82.7369317 53.61376953 91.77832031 C 58.08278735 99.4079881 62.49361631 107.06977486 66.875 114.75 C 67.37504547 115.6264769 67.37504547 115.6264769 67.88519287 116.5206604 C 69.5800349 119.4919198 71.27407984 122.46363272 72.96777344 125.43554688 C 75.97470744 130.71093295 78.98859617 135.98234438 82.00201416 141.25402832 C 83.6682993 144.16918658 85.33412627 147.08460663 87 150 C 87.66666448 151.16666792 88.33333114 152.33333459 89 153.5 C 90.33333333 155.83333333 91.66666667 158.16666667 93 160.5 C 93.49499245 161.36623489 93.49499245 161.36623489 93.99998474 162.24996948 C 94.66670665 163.41673537 95.33342418 164.58350376 96.00013733 165.75027466 C 97.66592284 168.66544378 99.33178427 171.58056947 100.99780273 174.49560547 C 104.00840313 179.76343195 107.01844147 185.03157559 110.02566528 190.30133057 C 116.82477958 202.21576145 123.63753173 214.12188804 130.5 226 C 137.70212794 238.46602223 144.84829676 250.96361244 151.98388672 263.46777344 C 153.98935814 266.98180679 155.99638531 270.49494969 158.00390625 274.0078125 C 158.33375015 274.58500031 158.66359406 275.16218811 159.00343323 275.75686646 C 160.66725359 278.66824085 162.33125294 281.57951288 163.99536133 284.49072266 C 167.01661253 289.77653828 170.03673805 295.0629812 173.05130005 300.35261536 C 174.74179075 303.31883394 176.43315935 306.2845512 178.125 309.25 C 178.45755798 309.8329483 178.79011597 310.41589661 179.13275146 311.01651001 C 183.74788047 319.10245969 188.41621812 327.15572771 193.125 335.1875 C 198.45228942 344.275672 203.62763538 353.44056159 208.75048828 362.64526367 C 212.74985179 369.81409207 216.8436288 376.9211803 221 384 C 225.76429563 392.11419099 230.42411851 400.27809188 235 408.5 C 240.09830924 417.65723315 245.31308055 426.7369317 250.61376953 435.77832031 C 255.08278921 443.40799128 259.49337279 451.06991171 263.875 458.75 C 264.20504028 459.32833588 264.53508057 459.90667175 264.87512207 460.50253296 C 267.25161462 464.6674818 269.62595597 468.83365517 272 473 C 274.52760429 477.43547321 277.0561606 481.87040025 279.58648682 486.30432129 C 280.59095732 488.06531777 281.59408628 489.82707925 282.59716797 491.58886719 C 285.95605177 497.47585864 289.36815851 503.31322244 292.94677734 509.06982422 C 294 511 294 511 294 513 C 100.29 513 -93.42 513 -293 513 C -291.56386092 508.69158276 -290.47293907 505.78934128 -288.234375 502.04296875 C -287.68136719 501.10839844 -287.12835938 500.17382812 -286.55859375 499.2109375 C -285.66333984 497.71433594 -285.66333984 497.71433594 -284.75 496.1875 C -279.72263435 487.68365376 -274.79726527 479.13575698 -270 470.5 C -264.86734663 461.27542551 -259.60421491 452.13757573 -254.25878906 443.03491211 C -249.99823967 435.76035222 -245.85181081 428.42759604 -241.75 421.0625 C -237.57091528 413.55968876 -233.33914116 406.10071979 -228.95458984 398.71630859 C -225.02403963 392.08045771 -221.19671884 385.38646382 -217.375 378.6875 C -217.03454651 378.09077484 -216.69409302 377.49404968 -216.34332275 376.87924194 C -214.59380922 373.81227035 -212.84507793 370.74485359 -211.09667969 367.67724609 C -208.06666492 362.36182171 -205.03002903 357.05018209 -201.99368286 351.7383728 C -200.33023375 348.82829475 -198.66702746 345.91807796 -197.00390625 343.0078125 C -196.50917061 342.14209877 -196.50917061 342.14209877 -196.00444031 341.25889587 C -193.99334478 337.739425 -191.9834059 334.21929627 -189.97433472 330.69866943 C -182.56160337 317.70896645 -175.12388912 304.73427956 -167.64208984 291.78417969 C -161.06211643 280.388541 -154.53808628 268.96110643 -148.01611328 257.53222656 C -144.34748397 251.10396954 -140.67393227 244.67852355 -137.00128174 238.25256348 C -136.00212586 236.5043307 -135.00300291 234.75607912 -134.00390625 233.0078125 C -133.67410767 232.43071533 -133.34430908 231.85361816 -133.0045166 231.2590332 C -130.9933984 227.73951498 -128.98343185 224.21934174 -126.97433472 220.69866943 C -119.56160337 207.70896645 -112.12388912 194.73427956 -104.64208984 181.78417969 C -98.06211643 170.388541 -91.53808628 158.96110643 -85.01611328 147.53222656 C -83.01064186 144.01819321 -81.00361469 140.50505031 -78.99609375 136.9921875 C -78.5013279 136.12640579 -78.5013279 136.12640579 -77.99656677 135.24313354 C -76.33274641 132.33175915 -74.66874706 129.42048712 -73.00463867 126.50927734 C -69.98338747 121.22346172 -66.96326195 115.9370188 -63.94869995 110.64738464 C -62.25820925 107.68116606 -60.56684065 104.7154488 -58.875 101.75 C -58.37616302 100.87557755 -58.37616302 100.87557755 -57.86724854 99.98348999 C -53.25211953 91.89754031 -48.58378188 83.84427229 -43.875 75.8125 C -38.55235063 66.73224377 -33.38168705 57.57525117 -28.26269531 48.37890625 C -23.0163653 38.97616319 -17.59937269 29.67811754 -12.15234375 20.390625 C -8.83321446 14.7291075 -5.58102889 9.03163114 -2.35546875 3.31640625 C -1 1 -1 1 0 0 Z" stroke-linecap="round"/>
</g>
		<g transform="matrix(1 0 0 1 0.1413 -0.3826)">
<path style="stroke: none; stroke-width: 1; stroke-dasharray: none; stroke-linecap: butt; stroke-dashoffset: 0; stroke-linejoin: miter; stroke-miterlimit: 4; is-custom-font: none; font-file-url: none; fill: rgb(252,249,249); fill-rule: nonzero; opacity: 1;" transform=" translate(28.7181, -375.1058)" d="M 0 0 C 10.30283352 7.16310141 15.78305729 17.27701329 21.703125 28.11328125 C 26.4139215 36.63420638 31.20511602 45.09548471 36.140625 53.48828125 C 40.9055205 61.60211113 45.56475202 69.76638841 50.140625 77.98828125 C 55.23893424 87.1455144 60.45370555 96.22521295 65.75439453 105.26660156 C 70.22341235 112.89626935 74.63424131 120.55805611 79.015625 128.23828125 C 79.34898865 128.82259918 79.68235229 129.40691711 80.02581787 130.00894165 C 81.7206599 132.98020105 83.41470484 135.95191397 85.10839844 138.92382812 C 88.11543363 144.19939172 91.12940437 149.47099185 94.14291382 154.74285889 C 95.80770436 157.65528756 97.47225465 160.5678535 99.13671875 163.48046875 C 99.46652237 164.05757599 99.79632599 164.63468323 100.13612366 165.22927856 C 102.14723953 168.74878504 104.15719878 172.26894937 106.16629028 175.78961182 C 112.96540458 187.7040427 119.77815673 199.61016929 126.640625 211.48828125 C 133.84275294 223.95430348 140.98892176 236.45189369 148.12451172 248.95605469 C 150.12998314 252.47008804 152.137007 255.98323283 154.14453125 259.49609375 C 154.63922913 260.3617395 154.63922913 260.3617395 155.1439209 261.24487305 C 156.14279595 262.99269082 157.14170389 264.7404898 158.140625 266.48828125 C 161.81727682 272.92124229 165.49388907 279.35422297 169.16629028 285.78961182 C 175.96540458 297.7040427 182.77815673 309.61016929 189.640625 321.48828125 C 196.84275294 333.95430348 203.98892176 346.45189369 211.12451172 358.95605469 C 213.12998314 362.47008804 215.13701031 365.98323094 217.14453125 369.49609375 C 217.6392971 370.36187546 217.6392971 370.36187546 218.14405823 371.24514771 C 219.80787859 374.1565221 221.47187794 377.06779413 223.13598633 379.97900391 C 226.15723753 385.26481953 229.17736305 390.55126245 232.19192505 395.84089661 C 233.88241575 398.80711519 235.57378435 401.77283245 237.265625 404.73828125 C 237.59818298 405.32122955 237.93074097 405.90417786 238.27337646 406.50479126 C 242.88850547 414.59074094 247.55684312 422.64400896 252.265625 430.67578125 C 257.59208911 439.7625453 262.76630336 448.92618826 267.88891602 458.12915039 C 272.47631322 466.3510939 277.19667156 474.48894839 281.9609375 482.609375 C 286.47256949 490.3104381 290.87503329 498.06850104 295.24853516 505.84863281 C 299.12388396 512.72746483 303.08283011 519.55352307 307.078125 526.36328125 C 312.46876272 535.55485644 317.70869404 544.82162758 322.89038086 554.13232422 C 327.44865728 562.3027597 332.14431206 570.38589473 336.88183594 578.45336914 C 341.14238533 585.72792903 345.28881419 593.06068521 349.390625 600.42578125 C 353.56970972 607.92859249 357.80148384 615.38756146 362.18603516 622.77197266 C 366.8191729 630.59398472 371.31642851 638.49397642 375.8112793 646.39599609 C 376.50301732 647.6116964 377.19483103 648.82735364 377.88671875 650.04296875 C 378.23324997 650.65183929 378.57978119 651.26070984 378.93681335 651.88803101 C 381.08788118 655.66093249 383.2598459 659.42090388 385.44952393 663.17152405 C 386.89975105 665.65657419 388.34307522 668.14560326 389.78607178 670.63485718 C 390.7923737 672.3643373 391.80836789 674.08816675 392.82470703 675.81176758 C 399.25710492 686.92763574 404.07548923 697.08164473 403.703125 710.11328125 C 403.68580322 711.11456055 403.66848145 712.11583984 403.65063477 713.14746094 C 403.42376898 720.21551364 402.66581872 726.24900033 399.140625 732.48828125 C 398.63144531 733.42671875 398.12226562 734.36515625 397.59765625 735.33203125 C 391.17503043 746.26666194 381.9517304 753.69628006 369.78721964 757.55088478 C 363.88200811 758.97302868 357.929806 758.76698875 351.8888607 758.74834347 C 350.53989405 758.75134289 349.1909291 758.75521462 347.84196717 758.7598758 C 344.13368871 758.77014941 340.42550578 758.76800376 336.71721929 758.76382044 C 332.68328909 758.76145383 328.6493823 758.77062381 324.61546099 758.77830464 C 317.54482591 758.79015141 310.47421663 758.79451741 303.40357208 758.79398346 C 292.88903355 758.79319032 282.37452761 758.80373906 271.85999778 758.81639903 C 250.89363223 758.84114163 229.92727459 758.84992204 208.96089645 758.85493552 C 207.33209606 758.85532728 207.33209606 758.85532728 205.67039061 758.85572696 C 204.03833287 758.85611737 204.03833287 758.85611737 202.37330428 758.85651567 C 190.31797661 758.85959752 178.26265113 758.8661021 166.20732498 758.87272835 C 129.79875737 758.89237629 93.39019213 758.90878072 56.98161888 758.91160488 C 55.81700618 758.91169894 54.65239348 758.911793 53.45248949 758.91188991 C 48.73278365 758.9122684 44.01307782 758.91263239 39.29337198 758.91299289 C 35.74099147 758.91326461 32.18861097 758.91354129 28.63623047 758.91381836 C 27.46238814 758.91390638 26.28854582 758.9139944 25.07913251 758.91408509 C -11.8048532 758.91699063 -48.6887865 758.93908726 -85.57275391 758.9753418 C -127.0050175 759.01606591 -168.43724538 759.03976343 -209.86953008 759.04006439 C -214.28741352 759.04016122 -218.70529695 759.04032794 -223.12318039 759.04054451 C -224.21098704 759.04058862 -225.2987937 759.04063274 -226.41956419 759.04067819 C -243.92700026 759.04179815 -261.43438383 759.05920853 -278.941803 759.08236383 C -296.53730811 759.10520394 -314.13274229 759.10943312 -331.72825678 759.09481453 C -342.18115752 759.08666196 -352.63383486 759.09235802 -363.08670852 759.11799538 C -370.07190271 759.13374513 -377.05693828 759.13127191 -384.04212866 759.11408865 C -388.02025328 759.10481478 -391.99794757 759.10332865 -395.97603865 759.12405472 C -399.6021286 759.14278571 -403.2274382 759.1380871 -406.85349908 759.11546378 C -408.75740831 759.1094096 -410.66134884 759.12765517 -412.56516761 759.14717785 C -425.22701526 759.01881715 -436.62108823 755.3200834 -445.859375 746.48828125 C -446.48328125 745.89273438 -447.1071875 745.2971875 -447.75 744.68359375 C -457.41766686 734.55356021 -461.24757984 722.24932424 -461.15795898 708.54833984 C -460.70032833 691.48327303 -450.87279115 677.34158683 -442.4675293 663.06958008 C -438.16604006 655.76206782 -433.97945049 648.39943153 -429.859375 640.98828125 C -424.76154301 631.83078838 -419.5462881 622.75133873 -414.24560547 613.70996094 C -409.77658765 606.08029315 -405.36575869 598.41850639 -400.984375 590.73828125 C -400.48432953 589.86180435 -400.48432953 589.86180435 -399.97418213 588.96762085 C -398.2793401 585.99636145 -396.58529516 583.02464853 -394.89160156 580.05273438 C -391.88466756 574.7773483 -388.87077883 569.50593687 -385.85736084 564.23425293 C -384.1910757 561.31909467 -382.52524873 558.40367462 -380.859375 555.48828125 C -380.19271052 554.32161333 -379.52604386 553.15494666 -378.859375 551.98828125 C -378.364375 551.12203125 -378.364375 551.12203125 -377.859375 550.23828125 C -374.859375 544.98828126 -374.859375 544.98828126 -373.85940552 543.23834229 C -373.19262836 542.07147718 -372.52585997 540.90460706 -371.85910034 539.73773193 C -370.19419594 536.82406034 -368.52914014 533.91047547 -366.86376953 530.99707031 C -363.84257358 525.71143234 -360.82254701 520.42514222 -357.80807495 515.13566589 C -356.11758425 512.16944731 -354.42621565 509.20373005 -352.734375 506.23828125 C -352.40181702 505.65533295 -352.06925903 505.07238464 -351.72662354 504.47177124 C -347.11149453 496.38582156 -342.44315688 488.33255354 -337.734375 480.30078125 C -332.40708558 471.21260925 -327.23173962 462.04771966 -322.10888672 452.84301758 C -317.55094352 444.67293939 -312.85544721 436.59025783 -308.11816406 428.52319336 C -303.85761467 421.24863347 -299.71118581 413.91587729 -295.609375 406.55078125 C -291.43029028 399.04797001 -287.19851616 391.58900104 -282.81396484 384.20458984 C -278.88341463 377.56873896 -275.05609384 370.87474507 -271.234375 364.17578125 C -270.89392151 363.57905609 -270.55346802 362.98233093 -270.20269775 362.36752319 C -268.45318422 359.3005516 -266.70445293 356.23313484 -264.95605469 353.16552734 C -261.59550106 347.27025288 -258.22702823 341.37950186 -254.859375 335.48828125 C -253.52855754 333.16020671 -252.19781127 330.8320915 -250.8671875 328.50390625 C -250.53757019 327.92717667 -250.20795288 327.35044708 -249.86834717 326.75624084 C -247.84613938 323.21725381 -245.8262536 319.67695206 -243.80807495 316.13566589 C -242.11758425 313.16944731 -240.42621565 310.20373005 -238.734375 307.23828125 C -238.40181702 306.65533295 -238.06925903 306.07238464 -237.72662354 305.47177124 C -233.11149453 297.38582156 -228.44315688 289.33255354 -223.734375 281.30078125 C -218.40708558 272.21260925 -213.23173962 263.04771966 -208.10888672 253.84301758 C -203.55094352 245.67293939 -198.85544721 237.59025783 -194.11816406 229.52319336 C -189.85761467 222.24863347 -185.71118581 214.91587729 -181.609375 207.55078125 C -177.43029028 200.04797001 -173.19851616 192.58900104 -168.81396484 185.20458984 C -164.88341463 178.56873896 -161.05609384 171.87474507 -157.234375 165.17578125 C -156.72369476 164.28069351 -156.72369476 164.28069351 -156.20269775 163.36752319 C -154.45318422 160.3005516 -152.70445293 157.23313484 -150.95605469 154.16552734 C -147.92603992 148.85010296 -144.88940403 143.53846334 -141.85305786 138.22665405 C -140.18960875 135.316576 -138.52640246 132.40635921 -136.86328125 129.49609375 C -136.53345749 128.91895126 -136.20363373 128.34180878 -135.86381531 127.74717712 C -133.85271978 124.22770625 -131.8427809 120.70757752 -129.83370972 117.18695068 C -122.42097837 104.1972477 -114.98326412 91.22256081 -107.50146484 78.27246094 C -103.29139423 70.98117866 -99.10043043 63.6791738 -94.92483521 56.36810303 C -93.92635831 54.62112544 -92.92612957 52.87516112 -91.92553711 51.12939453 C -88.81207194 45.69230829 -85.71621506 40.24708287 -82.67628479 34.76846313 C -81.27033597 32.23726865 -79.85488229 29.7114485 -78.43869019 27.18597412 C -77.45840464 25.42876249 -76.49174497 23.66397069 -75.52563477 21.89892578 C -67.90679546 8.33443559 -58.56849655 -1.66450876 -43.671875 -6.94921875 C -28.37380355 -11.14121698 -13.29219399 -8.63992609 0 0 Z M -53.81811523 21.80102539 C -57.53933373 26.69989538 -60.35194524 32.06806421 -63.234375 37.48828125 C -64.22397116 39.31480496 -65.21806124 41.1388342 -66.21244812 42.9627533 C -66.86651504 44.16293965 -67.51929183 45.36383005 -68.17073059 46.56544495 C -70.61938505 51.07728483 -73.16299851 55.52015784 -75.796875 59.92578125 C -80.1341353 67.20955489 -84.34901365 74.5610883 -88.546875 81.92578125 C -93.79317293 91.12761024 -99.05882053 100.31753634 -104.359375 109.48828125 C -109.5277867 118.43376605 -114.67368888 127.39183051 -119.796875 136.36328125 C -120.12831512 136.9436615 -120.45975525 137.52404175 -120.80123901 138.12200928 C -123.15473776 142.24365103 -125.50717753 146.36589676 -127.859375 150.48828125 C -130.54614711 155.19703035 -133.23338905 159.90551043 -135.921875 164.61328125 C -136.41915604 165.48409332 -136.41915604 165.48409332 -136.92648315 166.37249756 C -142.32885671 175.83063752 -147.76543282 185.26874231 -153.21508789 194.69970703 C -157.78664418 202.61591 -162.32893439 210.54851439 -166.859375 218.48828125 C -172.00256434 227.50191322 -177.16712992 236.50278042 -182.359375 245.48828125 C -187.52768502 254.43382508 -192.67368862 263.39183005 -197.796875 272.36328125 C -198.12831512 272.9436615 -198.45975525 273.52404175 -198.80123901 274.12200928 C -201.15473776 278.24365103 -203.50717753 282.36589676 -205.859375 286.48828125 C -208.54614711 291.19703035 -211.23338905 295.90551043 -213.921875 300.61328125 C -214.25339569 301.19382263 -214.58491638 301.77436401 -214.92648315 302.37249756 C -220.32966829 311.83205838 -225.76756445 321.2712867 -231.21728516 330.70410156 C -235.7642552 338.57884884 -240.28747956 346.46697494 -244.796875 354.36328125 C -245.12798279 354.94299683 -245.45909058 355.5227124 -245.80023193 356.11999512 C -249.17458564 362.02844763 -252.54627962 367.93841214 -255.91520691 373.84996033 C -257.60413711 376.81318623 -259.29402622 379.77586437 -260.984375 382.73828125 C -261.31684235 383.32104828 -261.64930969 383.90381531 -261.99185181 384.50424194 C -266.60706743 392.59037818 -271.2754894 400.64383204 -275.984375 408.67578125 C -280.7046591 416.7284231 -285.31872165 424.83304547 -289.859375 432.98828125 C -294.95786376 442.14541673 -300.17245316 451.22520887 -305.47314453 460.26660156 C -309.94216332 467.89627101 -314.35286385 475.5581278 -318.734375 483.23828125 C -319.06740631 483.82193451 -319.40043762 484.40558777 -319.74356079 485.00692749 C -321.43736547 487.97587629 -323.13033262 490.94530148 -324.82275391 493.91503906 C -328.18589551 499.81629814 -331.55315567 505.71520475 -334.921875 511.61328125 C -335.25330505 512.19364136 -335.58473511 512.77400146 -335.9262085 513.37194824 C -341.32947748 522.83169684 -346.76746206 532.27110947 -352.21728516 541.70410156 C -356.76425477 549.5788481 -361.28761191 557.46689982 -365.796875 565.36328125 C -366.12831512 565.9436615 -366.45975525 566.52404175 -366.80123901 567.12200928 C -369.15473776 571.24365103 -371.50717753 575.36589676 -373.859375 579.48828125 C -376.54614711 584.19703035 -379.23338905 588.90551043 -381.921875 593.61328125 C -382.41915604 594.48409332 -382.41915604 594.48409332 -382.92648315 595.37249756 C -388.32885671 604.83063752 -393.76543282 614.26874231 -399.21508789 623.69970703 C -404.45981117 632.7815801 -409.6657603 641.88528866 -414.85913086 650.99658203 C -418.86127367 658.01417031 -422.89950442 665.00941727 -426.96459961 671.99072266 C -429.43481666 676.2471251 -431.87804239 680.51854062 -434.31347656 684.79492188 C -435.63580425 687.09876254 -436.9878201 689.38077458 -438.3515625 691.66015625 C -443.23349085 700.32606923 -444.41246726 707.76414311 -442.859375 717.48828125 C -439.74762955 727.36273703 -434.13657079 733.21050499 -425.53938472 738.55039638 C -419.77375553 741.38130828 -413.96368662 741.04082736 -407.65890694 740.99443913 C -406.31554692 740.99891941 -404.97219182 741.00514999 -403.62884706 741.01296446 C -399.93606725 741.02936442 -396.24370016 741.02089046 -392.55092067 741.00835283 C -388.53395129 740.99910872 -384.51705108 741.01303115 -380.50009525 741.023992 C -373.45935758 741.03998467 -366.41873942 741.04106707 -359.37799072 741.03239441 C -348.90814431 741.01953242 -338.43840612 741.02947823 -327.96856621 741.04389396 C -309.26995116 741.06884505 -290.57138672 741.0707133 -271.87275988 741.06261984 C -255.50818304 741.05555118 -239.14362586 741.05548562 -222.77904892 741.06248283 C -220.58519835 741.06339416 -218.39134778 741.06430492 -216.19749721 741.06521512 C -212.89169076 741.06659823 -209.58588431 741.06798932 -206.28007788 741.06940126 C -175.53929203 741.08238512 -144.79851278 741.08749252 -114.05772591 741.07586765 C -112.89854377 741.07542968 -111.73936164 741.07499171 -110.54505278 741.07454047 C -101.13126002 741.07093352 -91.71746734 741.06709881 -82.30367467 741.06324954 C -45.58084018 741.04840145 -8.85808006 741.05718088 27.86474609 741.08520508 C 69.11092997 741.11662088 110.35706981 741.13160682 151.60326588 741.12140507 C 155.99973304 741.12036826 160.39620021 741.11938104 164.79266739 741.11842155 C 165.87521113 741.11817267 166.95775488 741.11792378 168.07310298 741.11766735 C 184.42683196 741.11422481 200.78052211 741.12354288 217.13424301 741.13919258 C 235.72913928 741.15694591 254.32394093 741.15711603 272.91883312 741.13384093 C 283.32813241 741.12132371 293.73721439 741.12261966 304.14650101 741.14372179 C 311.09753856 741.1564291 318.04840844 741.15099336 324.99942772 741.13073698 C 328.96131458 741.11970015 332.9227737 741.11655061 336.88464068 741.13541228 C 340.49133111 741.15241865 344.09722492 741.14628233 347.70386658 741.12194644 C 349.60708116 741.1149911 351.51033764 741.13246643 353.41347438 741.15103206 C 362.97258299 741.04859764 371.24119053 738.38771572 378.140625 731.48828125 C 384.24050995 723.50798064 386.89854395 716.50003688 386.6875 706.359375 C 385.75946614 699.79022102 382.77944807 694.5815399 379.52734375 688.91162109 C 377.98158588 686.21035478 376.48204127 683.4860253 374.984375 680.7578125 C 368.66994053 669.30995654 362.13936482 657.99045262 355.52832031 646.71191406 C 351.05828737 639.08190215 346.64740872 631.41920763 342.265625 623.73828125 C 341.93226135 623.15396332 341.59889771 622.56964539 341.25543213 621.96762085 C 339.5605901 618.99636145 337.86654516 616.02464853 336.17285156 613.05273438 C 334.16188504 609.52468063 332.14786291 605.99837877 330.1328125 602.47265625 C 329.80321533 601.89596191 329.47361816 601.31926758 329.1340332 600.72509766 C 328.13628315 598.97946207 327.13846728 597.23386412 326.140625 595.48828125 C 322.45399185 589.03904196 318.76749832 582.58973499 315.08932495 576.13566589 C 313.39883425 573.16944731 311.70746565 570.20373005 310.015625 567.23828125 C 309.68306702 566.65533295 309.35050903 566.07238464 309.00787354 565.47177124 C 304.39274453 557.38582156 299.72440688 549.33255354 295.015625 541.30078125 C 289.68699686 532.21032544 284.5114934 523.04252596 279.38574219 513.83642578 C 274.86471935 505.73510547 270.21888496 497.71315866 265.52685547 489.70996094 C 261.05783668 482.08029149 256.64713615 474.4184347 252.265625 466.73828125 C 251.76607803 465.86280136 251.76607803 465.86280136 251.25643921 464.96963501 C 249.56263453 462.00068621 247.86966738 459.03126102 246.17724609 456.06152344 C 242.81410449 450.16026436 239.44684433 444.26135775 236.078125 438.36328125 C 235.74669495 437.78292114 235.41526489 437.20256104 235.0737915 436.60461426 C 230.28454837 428.21986863 225.47113709 419.84932005 220.640625 411.48828125 C 215.47239406 402.5426915 210.32631159 393.58473281 205.203125 384.61328125 C 204.87168488 384.032901 204.54024475 383.45252075 204.19876099 382.85455322 C 201.50828392 378.14276715 198.81923848 373.43016443 196.13024902 368.7175293 C 193.78020843 364.5990654 191.4296041 360.480924 189.078125 356.36328125 C 188.58084396 355.49246918 188.58084396 355.49246918 188.07351685 354.60406494 C 182.67114329 345.14592498 177.23456718 335.70782019 171.78491211 326.27685547 C 166.87354171 317.77222326 161.99756694 309.24771647 157.13037109 300.71777344 C 152.32344591 292.29460797 147.4928935 283.88543161 142.640625 275.48828125 C 137.47231448 266.54273657 132.32646174 257.58464709 127.203125 248.61328125 C 126.87201721 248.03356567 126.54090942 247.4538501 126.19976807 246.85656738 C 122.82541436 240.94811487 119.45372038 235.03815036 116.08479309 229.12660217 C 114.39586289 226.16337627 112.70597378 223.20069813 111.015625 220.23828125 C 110.68315765 219.65551422 110.35069031 219.07274719 110.00814819 218.47232056 C 105.39293257 210.38618432 100.7245106 202.33273046 96.015625 194.30078125 C 90.68699686 185.21032544 85.5114934 176.04252596 80.38574219 166.83642578 C 75.86471935 158.73510547 71.21888496 150.71315866 66.52685547 142.70996094 C 62.05783668 135.08029149 57.64713615 127.4184347 53.265625 119.73828125 C 52.76607803 118.86280136 52.76607803 118.86280136 52.25643921 117.96963501 C 50.56263453 115.00068621 48.86966738 112.03126102 47.17724609 109.06152344 C 43.81410449 103.16026436 40.44684433 97.26135775 37.078125 91.36328125 C 36.74669495 90.78292114 36.41526489 90.20256104 36.0737915 89.60461426 C 30.67846689 80.15877424 25.2567969 70.72832711 19.80249023 61.31640625 C 16.82750602 56.1762619 13.87218887 51.0267607 10.97009277 45.84515381 C 9.54375385 43.29869608 8.11102459 40.75585364 6.6784668 38.21289062 C 5.99807333 37.00031455 5.32102753 35.78585263 4.64770508 34.56933594 C -2.41483117 21.38627041 -2.41483117 21.38627041 -14.046875 12.55078125 C -14.86542969 12.17050781 -15.68398438 11.79023438 -16.52734375 11.3984375 C -30.89820892 5.78970788 -44.08321404 10.47031425 -53.81811523 21.80102539 Z" stroke-linecap="round"/>
</g>
		<g transform="matrix(1 0 0 1 -95 180.8457)">
<path style="stroke: none; stroke-width: 1; stroke-dasharray: none; stroke-linecap: butt; stroke-dashoffset: 0; stroke-linejoin: miter; stroke-miterlimit: 4; is-custom-font: none; font-file-url: none; fill: rgb(2,2,2); fill-rule: nonzero; opacity: 1;" transform=" translate(90.4897, -81.0913)" d="M 0 0 C 2.51025391 0.24560547 2.51025391 0.24560547 4.2043457 1.78344727 C 4.7010376 2.49670166 5.19772949 3.20995605 5.70947266 3.94482422 C 6.27448486 4.73646973 6.83949707 5.52811523 7.42163086 6.34375 C 8.30081177 7.62548096 8.30081177 7.62548096 9.19775391 8.93310547 C 10.43359108 10.67480176 11.67057737 12.41568324 12.90869141 14.15576172 C 13.51551758 15.01830566 14.12234375 15.88084961 14.74755859 16.76953125 C 17.19064572 20.20135807 19.73897681 23.54407063 22.32275391 26.87060547 C 23.50804687 28.40587891 23.50804687 28.40587891 24.71728516 29.97216797 C 26.31498825 32.08945294 26.31498825 32.08945294 27.51025391 33.24560547 C 27.74866242 34.62240554 27.92845889 36.00945036 28.08276367 37.39819336 C 28.1827919 38.27903091 28.28282013 39.15986847 28.38587952 40.06739807 C 28.54219093 41.50332558 28.54219093 41.50332558 28.70166016 42.96826172 C 28.81122543 43.94347275 28.92079071 44.91868378 29.03367615 45.92344666 C 29.38412738 49.05122505 29.72850047 52.17963945 30.07275391 55.30810547 C 30.30868326 57.42338436 30.54500616 59.53861939 30.78173828 61.65380859 C 31.36248478 66.85057317 31.93823687 72.04787319 32.51025391 77.24560547 C 22.80541337 82.14374062 13.06858472 86.93810933 3.19775391 91.49560547 C 2.00045654 92.04933838 0.80315918 92.60307129 -0.43041992 93.17358398 C -11.89006067 98.46245332 -23.39625495 103.64256252 -34.9609375 108.69775391 C -37.32059566 109.73277762 -39.67704396 110.77514916 -42.03027344 111.82470703 C -67.7724781 123.29417768 -94.23240664 132.64977488 -120.81866455 141.95770264 C -124.61053993 143.28798282 -128.39987938 144.62526573 -132.18847656 145.96484375 C -138.57556471 148.22281788 -144.96712039 150.46770793 -151.36199951 152.70352173 C -153.81286147 153.56165379 -156.26262185 154.42293884 -158.71124268 155.28744507 C -162.11432271 156.48712072 -165.52192447 157.67290861 -168.93115234 158.85498047 C -169.94527695 159.21539932 -170.95940155 159.57581818 -172.0042572 159.94715881 C -172.93605301 160.26704269 -173.86784882 160.58692657 -174.82788086 160.91650391 C -175.63620865 161.19894958 -176.44453644 161.48139526 -177.27735901 161.7723999 C -179.88950444 162.33110944 -181.09084581 162.46042881 -183.48974609 161.24560547 C -184.9309082 158.72499084 -184.9309082 158.72499084 -186.26708984 155.32397461 C -186.6387175 154.39687683 -186.6387175 154.39687683 -187.01785278 153.4510498 C -187.83582748 151.39982949 -188.63143138 149.34066967 -189.42724609 147.28076172 C -189.99351326 145.8482929 -190.5611611 144.41636916 -191.13012695 142.98497009 C -192.62846487 139.20471658 -194.10805462 135.41739177 -195.5838623 131.6282959 C -197.0753463 127.80823981 -198.58392517 123.99495588 -200.09130859 120.18115234 C -202.79239931 113.34117871 -205.47870853 106.49558862 -208.15039062 99.64407349 C -209.66230124 95.80776565 -211.22703775 91.99496453 -212.82348633 88.19309998 C -213.48974609 86.24560547 -213.48974609 86.24560547 -213.48974609 83.24560547 C -199.98498193 75.16722691 -185.86006798 68.62684999 -171.48974609 62.24560547 C -170.84438904 61.95816467 -170.19903198 61.67072388 -169.53411865 61.37457275 C -130.53435951 44.01948316 -90.34074871 29.93776294 -50.1321106 15.67355347 C -43.50498912 13.32145337 -36.88456564 10.95192691 -30.27099609 8.56201172 C -28.13592936 7.79324873 -26.0006554 7.02506528 -23.86526489 6.25720215 C -22.0014436 5.58487055 -20.13995147 4.90609274 -18.27856445 4.22705078 C -12.03235103 1.98736159 -6.5757852 0.64868013 0 0 Z" stroke-linecap="round"/>
</g>
		<g transform="matrix(1 0 0 1 72 100.4883)">
<path style="stroke: none; stroke-width: 1; stroke-dasharray: none; stroke-linecap: butt; stroke-dashoffset: 0; stroke-linejoin: miter; stroke-miterlimit: 4; is-custom-font: none; font-file-url: none; fill: rgb(2,2,2); fill-rule: nonzero; opacity: 1;" transform=" translate(-63.7188, -112.5117)" d="M 0 0 C 3.92777862 1.47856034 6.92219489 3.83634188 10.21875 6.3984375 C 10.92435059 6.93718506 11.62995117 7.47593262 12.35693359 8.03100586 C 17.33423163 11.86353657 22.16468248 15.84797051 26.92382812 19.94677734 C 30.77069335 23.25408533 34.71176335 26.41259086 38.71875 29.5234375 C 43.86559546 33.52235895 48.86958317 37.65243085 53.81762695 41.89404297 C 57.76298944 45.25901131 61.80775992 48.47249601 65.90625 51.6484375 C 70.92925036 55.54490562 75.69549974 59.62190525 80.37890625 63.92578125 C 82.65932509 65.97016342 84.99939228 67.88035894 87.40625 69.7734375 C 93.04413572 74.2202206 98.43370203 78.93409692 103.84375 83.65234375 C 106.94577762 86.35729318 110.06870624 89.03630455 113.20166016 91.70532227 C 118.99420596 96.64075056 124.6808672 101.66368415 130.2890625 106.80859375 C 132.32390415 108.66350567 134.38196247 110.47772548 136.46875 112.2734375 C 147.5314739 121.94225819 158.00925802 132.21255022 168.40625 142.5859375 C 168.93734375 143.11444305 169.4684375 143.64294861 170.015625 144.18746948 C 171.54854431 145.71448976 173.07764004 147.24523187 174.60546875 148.77734375 C 175.49451904 149.66752197 176.38356934 150.5577002 177.29956055 151.47485352 C 179.59501454 153.89308384 181.67955735 156.38756695 183.71875 159.0234375 C 179.75608343 167.91879839 171.70543205 175.19169488 165.19140625 182.26953125 C 161.97165481 185.85551034 158.95969824 189.59045242 155.93359375 193.33984375 C 153.76242173 195.97052307 151.51633643 198.50286174 149.21875 201.0234375 C 145.27185182 205.35539892 141.5574051 209.84009034 137.87109375 214.39453125 C 134.90698137 218.01494437 131.83135732 221.5305116 128.71875 225.0234375 C 124.53856699 224.41447257 121.43342987 222.04312357 118.03125 219.7109375 C 117.37842041 219.2679834 116.72559082 218.8250293 116.05297852 218.36865234 C 113.93679159 216.92710812 111.82786253 215.47530729 109.71875 214.0234375 C 109.01395508 213.54374512 108.30916016 213.06405273 107.58300781 212.56982422 C 98.02671419 206.05853507 89.05899071 199.17526183 80.40722656 191.50585938 C 78.73405731 190.03687677 77.04047999 188.59646766 75.3359375 187.1640625 C 67.91150535 180.91642882 60.77567945 174.4163567 53.75463867 167.71777344 C 45.96059025 160.17886708 45.96059025 160.17886708 37.48486328 153.44799805 C 36.9020459 152.97789307 36.31922852 152.50778809 35.71875 152.0234375 C 35.71875 151.3634375 35.71875 150.7034375 35.71875 150.0234375 C 36.79125 150.2915625 37.86375 150.5596875 38.96875 150.8359375 C 40.20625 150.8978125 41.44375 150.9596875 42.71875 151.0234375 C 45.21085521 148.72275731 45.21085521 148.72275731 46.71875 146.0234375 C 45.10182221 141.94215591 42.17597594 139.21739817 39.09375 136.2109375 C 38.55322998 135.67686279 38.01270996 135.14278809 37.45581055 134.5925293 C 33.97349215 131.17659016 30.39200062 127.91855487 26.67578125 124.7578125 C 22.84691282 121.36456383 19.29748997 117.67673455 15.71875 114.0234375 C 20.40640425 106.47745749 25.92864463 99.74286964 31.71875 93.0234375 C 32.22237061 92.42934082 32.72599121 91.83524414 33.24487305 91.22314453 C 38.11311496 85.54815725 43.3450727 80.28210887 48.65625 75.0234375 C 49.53087891 74.15332031 50.40550781 73.28320312 51.30664062 72.38671875 C 53.44172449 70.26330201 55.57912205 68.14227372 57.71875 66.0234375 C 56.79197704 64.13918867 55.86156677 62.25672867 54.9296875 60.375 C 54.41196777 59.32650879 53.89424805 58.27801758 53.36083984 57.19775391 C 51.3633279 53.33637266 49.13924489 49.65899095 46.8203125 45.984375 C 45.71875 44.0234375 45.71875 44.0234375 45.71875 42.0234375 C 24.16058539 58.21809739 1.92983214 81.60127323 -10.28125 106.0234375 C -13.18246088 104.69371585 -15.40869003 103.2139573 -17.78125 101.0859375 C -18.4721875 100.46847656 -19.163125 99.85101563 -19.875 99.21484375 C -23.21101457 96.17668762 -26.53769618 93.12844685 -29.85742188 90.07250977 C -33.23629487 86.96580009 -36.66160804 83.92439363 -40.1328125 80.921875 C -43.55757373 77.89563144 -46.90357091 74.78269233 -50.24609375 71.66601562 C -53.04415569 69.04126386 -53.04415569 69.04126386 -56.28125 67.0234375 C -53.86577982 58.92933366 -50.47284393 51.36541888 -46.87817383 43.73974609 C -46.19141242 42.2683229 -45.5177451 40.79071343 -44.85766602 39.30712891 C -40.10903853 28.64665525 -35.44954263 22.31624267 -25.28125 16.0234375 C -23.5473415 14.82453738 -21.81787286 13.61918056 -20.09375 12.40625 C -18.4915205 11.31745636 -16.8873851 10.2314615 -15.28125 9.1484375 C -13.65570716 8.04767621 -12.03068765 6.94614162 -10.40625 5.84375 C -9.70757812 5.37211426 -9.00890625 4.90047852 -8.2890625 4.41455078 C -6.88127021 3.43916162 -5.5087576 2.41179186 -4.16601562 1.34863281 C -2.28125 0.0234375 -2.28125 0.0234375 0 0 Z" stroke-linecap="round"/>
</g>
		<g transform="matrix(1 0 0 1 0.1413 -0.3826)">
<path style="stroke: none; stroke-width: 1; stroke-dasharray: none; stroke-linecap: butt; stroke-dashoffset: 0; stroke-linejoin: miter; stroke-miterlimit: 4; is-custom-font: none; font-file-url: none; fill: rgb(12,12,12); fill-rule: nonzero; opacity: 1;" transform=" translate(28.7181, -375.1058)" d="M 0 0 C 10.30283352 7.16310141 15.78305729 17.27701329 21.703125 28.11328125 C 26.4139215 36.63420638 31.20511602 45.09548471 36.140625 53.48828125 C 40.9055205 61.60211113 45.56475202 69.76638841 50.140625 77.98828125 C 55.23893424 87.1455144 60.45370555 96.22521295 65.75439453 105.26660156 C 70.22341235 112.89626935 74.63424131 120.55805611 79.015625 128.23828125 C 79.34898865 128.82259918 79.68235229 129.40691711 80.02581787 130.00894165 C 81.7206599 132.98020105 83.41470484 135.95191397 85.10839844 138.92382812 C 88.11543363 144.19939172 91.12940437 149.47099185 94.14291382 154.74285889 C 95.80770436 157.65528756 97.47225465 160.5678535 99.13671875 163.48046875 C 99.46652237 164.05757599 99.79632599 164.63468323 100.13612366 165.22927856 C 102.14723953 168.74878504 104.15719878 172.26894937 106.16629028 175.78961182 C 112.96540458 187.7040427 119.77815673 199.61016929 126.640625 211.48828125 C 133.84275294 223.95430348 140.98892176 236.45189369 148.12451172 248.95605469 C 150.12998314 252.47008804 152.137007 255.98323283 154.14453125 259.49609375 C 154.63922913 260.3617395 154.63922913 260.3617395 155.1439209 261.24487305 C 156.14279595 262.99269082 157.14170389 264.7404898 158.140625 266.48828125 C 161.81727682 272.92124229 165.49388907 279.35422297 169.16629028 285.78961182 C 175.96540458 297.7040427 182.77815673 309.61016929 189.640625 321.48828125 C 196.84275294 333.95430348 203.98892176 346.45189369 211.12451172 358.95605469 C 213.12998314 362.47008804 215.13701031 365.98323094 217.14453125 369.49609375 C 217.6392971 370.36187546 217.6392971 370.36187546 218.14405823 371.24514771 C 219.80787859 374.1565221 221.47187794 377.06779413 223.13598633 379.97900391 C 226.15723753 385.26481953 229.17736305 390.55126245 232.19192505 395.84089661 C 233.88241575 398.80711519 235.57378435 401.77283245 237.265625 404.73828125 C 237.59818298 405.32122955 237.93074097 405.90417786 238.27337646 406.50479126 C 242.88850547 414.59074094 247.55684312 422.64400896 252.265625 430.67578125 C 257.59208911 439.7625453 262.76630336 448.92618826 267.88891602 458.12915039 C 272.47631322 466.3510939 277.19667156 474.48894839 281.9609375 482.609375 C 286.47256949 490.3104381 290.87503329 498.06850104 295.24853516 505.84863281 C 299.12388396 512.72746483 303.08283011 519.55352307 307.078125 526.36328125 C 312.46876272 535.55485644 317.70869404 544.82162758 322.89038086 554.13232422 C 327.44865728 562.3027597 332.14431206 570.38589473 336.88183594 578.45336914 C 341.14238533 585.72792903 345.28881419 593.06068521 349.390625 600.42578125 C 353.56970972 607.92859249 357.80148384 615.38756146 362.18603516 622.77197266 C 366.8191729 630.59398472 371.31642851 638.49397642 375.8112793 646.39599609 C 376.50301732 647.6116964 377.19483103 648.82735364 377.88671875 650.04296875 C 378.23324997 650.65183929 378.57978119 651.26070984 378.93681335 651.88803101 C 381.08788118 655.66093249 383.2598459 659.42090388 385.44952393 663.17152405 C 386.89975105 665.65657419 388.34307522 668.14560326 389.78607178 670.63485718 C 390.7923737 672.3643373 391.80836789 674.08816675 392.82470703 675.81176758 C 399.25710492 686.92763574 404.07548923 697.08164473 403.703125 710.11328125 C 403.68580322 711.11456055 403.66848145 712.11583984 403.65063477 713.14746094 C 403.42376898 720.21551364 402.66581872 726.24900033 399.140625 732.48828125 C 398.63144531 733.42671875 398.12226562 734.36515625 397.59765625 735.33203125 C 391.17503043 746.26666194 381.9517304 753.69628006 369.78721964 757.55088478 C 363.88200811 758.97302868 357.929806 758.76698875 351.8888607 758.74834347 C 350.53989405 758.75134289 349.1909291 758.75521462 347.84196717 758.7598758 C 344.13368871 758.77014941 340.42550578 758.76800376 336.71721929 758.76382044 C 332.68328909 758.76145383 328.6493823 758.77062381 324.61546099 758.77830464 C 317.54482591 758.79015141 310.47421663 758.79451741 303.40357208 758.79398346 C 292.88903355 758.79319032 282.37452761 758.80373906 271.85999778 758.81639903 C 250.89363223 758.84114163 229.92727459 758.84992204 208.96089645 758.85493552 C 207.33209606 758.85532728 207.33209606 758.85532728 205.67039061 758.85572696 C 204.03833287 758.85611737 204.03833287 758.85611737 202.37330428 758.85651567 C 190.31797661 758.85959752 178.26265113 758.8661021 166.20732498 758.87272835 C 129.79875737 758.89237629 93.39019213 758.90878072 56.98161888 758.91160488 C 55.81700618 758.91169894 54.65239348 758.911793 53.45248949 758.91188991 C 48.73278365 758.9122684 44.01307782 758.91263239 39.29337198 758.91299289 C 35.74099147 758.91326461 32.18861097 758.91354129 28.63623047 758.91381836 C 27.46238814 758.91390638 26.28854582 758.9139944 25.07913251 758.91408509 C -11.8048532 758.91699063 -48.6887865 758.93908726 -85.57275391 758.9753418 C -127.0050175 759.01606591 -168.43724538 759.03976343 -209.86953008 759.04006439 C -214.28741352 759.04016122 -218.70529695 759.04032794 -223.12318039 759.04054451 C -224.21098704 759.04058862 -225.2987937 759.04063274 -226.41956419 759.04067819 C -243.92700026 759.04179815 -261.43438383 759.05920853 -278.941803 759.08236383 C -296.53730811 759.10520394 -314.13274229 759.10943312 -331.72825678 759.09481453 C -342.18115752 759.08666196 -352.63383486 759.09235802 -363.08670852 759.11799538 C -370.07190271 759.13374513 -377.05693828 759.13127191 -384.04212866 759.11408865 C -388.02025328 759.10481478 -391.99794757 759.10332865 -395.97603865 759.12405472 C -399.6021286 759.14278571 -403.2274382 759.1380871 -406.85349908 759.11546378 C -408.75740831 759.1094096 -410.66134884 759.12765517 -412.56516761 759.14717785 C -425.22701526 759.01881715 -436.62108823 755.3200834 -445.859375 746.48828125 C -446.48328125 745.89273438 -447.1071875 745.2971875 -447.75 744.68359375 C -457.41766686 734.55356021 -461.24757984 722.24932424 -461.15795898 708.54833984 C -460.70032833 691.48327303 -450.87279115 677.34158683 -442.4675293 663.06958008 C -438.16604006 655.76206782 -433.97945049 648.39943153 -429.859375 640.98828125 C -424.76154301 631.83078838 -419.5462881 622.75133873 -414.24560547 613.70996094 C -409.77658765 606.08029315 -405.36575869 598.41850639 -400.984375 590.73828125 C -400.48432953 589.86180435 -400.48432953 589.86180435 -399.97418213 588.96762085 C -398.2793401 585.99636145 -396.58529516 583.02464853 -394.89160156 580.05273438 C -391.88466756 574.7773483 -388.87077883 569.50593687 -385.85736084 564.23425293 C -384.1910757 561.31909467 -382.52524873 558.40367462 -380.859375 555.48828125 C -380.19271052 554.32161333 -379.52604386 553.15494666 -378.859375 551.98828125 C -378.364375 551.12203125 -378.364375 551.12203125 -377.859375 550.23828125 C -374.859375 544.98828126 -374.859375 544.98828126 -373.85940552 543.23834229 C -373.19262836 542.07147718 -372.52585997 540.90460706 -371.85910034 539.73773193 C -370.19419594 536.82406034 -368.52914014 533.91047547 -366.86376953 530.99707031 C -363.84257358 525.71143234 -360.82254701 520.42514222 -357.80807495 515.13566589 C -356.11758425 512.16944731 -354.42621565 509.20373005 -352.734375 506.23828125 C -352.40181702 505.65533295 -352.06925903 505.07238464 -351.72662354 504.47177124 C -347.11149453 496.38582156 -342.44315688 488.33255354 -337.734375 480.30078125 C -332.40708558 471.21260925 -327.23173962 462.04771966 -322.10888672 452.84301758 C -317.55094352 444.67293939 -312.85544721 436.59025783 -308.11816406 428.52319336 C -303.85761467 421.24863347 -299.71118581 413.91587729 -295.609375 406.55078125 C -291.43029028 399.04797001 -287.19851616 391.58900104 -282.81396484 384.20458984 C -278.88341463 377.56873896 -275.05609384 370.87474507 -271.234375 364.17578125 C -270.89392151 363.57905609 -270.55346802 362.98233093 -270.20269775 362.36752319 C -268.45318422 359.3005516 -266.70445293 356.23313484 -264.95605469 353.16552734 C -261.59550106 347.27025288 -258.22702823 341.37950186 -254.859375 335.48828125 C -253.52855754 333.16020671 -252.19781127 330.8320915 -250.8671875 328.50390625 C -250.53757019 327.92717667 -250.20795288 327.35044708 -249.86834717 326.75624084 C -247.84613938 323.21725381 -245.8262536 319.67695206 -243.80807495 316.13566589 C -242.11758425 313.16944731 -240.42621565 310.20373005 -238.734375 307.23828125 C -238.40181702 306.65533295 -238.06925903 306.07238464 -237.72662354 305.47177124 C -233.11149453 297.38582156 -228.44315688 289.33255354 -223.734375 281.30078125 C -218.40708558 272.21260925 -213.23173962 263.04771966 -208.10888672 253.84301758 C -203.55094352 245.67293939 -198.85544721 237.59025783 -194.11816406 229.52319336 C -189.85761467 222.24863347 -185.71118581 214.91587729 -181.609375 207.55078125 C -177.43029028 200.04797001 -173.19851616 192.58900104 -168.81396484 185.20458984 C -164.88341463 178.56873896 -161.05609384 171.87474507 -157.234375 165.17578125 C -156.72369476 164.28069351 -156.72369476 164.28069351 -156.20269775 163.36752319 C -154.45318422 160.3005516 -152.70445293 157.23313484 -150.95605469 154.16552734 C -147.92603992 148.85010296 -144.88940403 143.53846334 -141.85305786 138.22665405 C -140.18960875 135.316576 -138.52640246 132.40635921 -136.86328125 129.49609375 C -136.53345749 128.91895126 -136.20363373 128.34180878 -135.86381531 127.74717712 C -133.85271978 124.22770625 -131.8427809 120.70757752 -129.83370972 117.18695068 C -122.42097837 104.1972477 -114.98326412 91.22256081 -107.50146484 78.27246094 C -103.29139423 70.98117866 -99.10043043 63.6791738 -94.92483521 56.36810303 C -93.92635831 54.62112544 -92.92612957 52.87516112 -91.92553711 51.12939453 C -88.81207194 45.69230829 -85.71621506 40.24708287 -82.67628479 34.76846313 C -81.27033597 32.23726865 -79.85488229 29.7114485 -78.43869019 27.18597412 C -77.45840464 25.42876249 -76.49174497 23.66397069 -75.52563477 21.89892578 C -67.90679546 8.33443559 -58.56849655 -1.66450876 -43.671875 -6.94921875 C -28.37380355 -11.14121698 -13.29219399 -8.63992609 0 0 Z M -66.859375 15.48828125 C -69.22724753 19.22700889 -71.32730662 23.09128966 -73.421875 26.98828125 C -74.6530585 29.23280826 -75.88618078 31.47627273 -77.12109375 33.71875 C -77.74290527 34.85103027 -78.3647168 35.98331055 -79.00537109 37.14990234 C -81.83602564 42.24686972 -84.77943877 47.27515587 -87.734375 52.30078125 C -92.78731562 60.91670192 -97.78504912 69.56249758 -102.734375 78.23828125 C -103.23442047 79.11475815 -103.23442047 79.11475815 -103.74456787 80.00894165 C -105.4394099 82.98020105 -107.13345484 85.95191397 -108.82714844 88.92382812 C -111.83408244 94.1992142 -114.84797117 99.47062563 -117.86138916 104.74230957 C -119.5276743 107.65746783 -121.19350127 110.57288788 -122.859375 113.48828125 C -123.52603948 114.65494917 -124.19270614 115.82161584 -124.859375 116.98828125 C -125.189375 117.56578125 -125.519375 118.14328125 -125.859375 118.73828125 C -128.85937497 123.98828119 -128.85937497 123.98828119 -129.85935974 125.73825073 C -130.52608165 126.90501662 -131.19279918 128.07178501 -131.85951233 129.23855591 C -133.52529784 132.15372503 -135.19115927 135.06885072 -136.85717773 137.98388672 C -139.86777813 143.2517132 -142.87781647 148.51985684 -145.88504028 153.78961182 C -153.29777163 166.7793148 -160.73548588 179.75400169 -168.21728516 192.70410156 C -174.79725857 204.09974025 -181.32128872 215.52717482 -187.84326172 226.95605469 C -191.51189103 233.38431171 -195.18544273 239.8097577 -198.85809326 246.23571777 C -199.85724914 247.98395055 -200.85637209 249.73220213 -201.85546875 251.48046875 C -202.18526733 252.05756592 -202.51506592 252.63466309 -202.8548584 253.22924805 C -204.8659766 256.74876627 -206.87594315 260.26893951 -208.88504028 263.78961182 C -216.29777163 276.7793148 -223.73548588 289.75400169 -231.21728516 302.70410156 C -237.79725857 314.09974025 -244.32128872 325.52717482 -250.84326172 336.95605469 C -252.84873314 340.47008804 -254.85576031 343.98323094 -256.86328125 347.49609375 C -257.19312515 348.07328156 -257.52296906 348.65046936 -257.86280823 349.24514771 C -259.52662859 352.1565221 -261.19062794 355.06779413 -262.85473633 357.97900391 C -265.87598753 363.26481953 -268.89611305 368.55126245 -271.91067505 373.84089661 C -273.60116575 376.80711519 -275.29253435 379.77283245 -276.984375 382.73828125 C -277.31693298 383.32122955 -277.64949097 383.90417786 -277.99212646 384.50479126 C -282.60725547 392.59074094 -287.27559312 400.64400896 -291.984375 408.67578125 C -297.31083911 417.7625453 -302.48505336 426.92618826 -307.60766602 436.12915039 C -312.19506322 444.3510939 -316.91542156 452.48894839 -321.6796875 460.609375 C -325.63831568 467.36649648 -329.5218982 474.16169787 -333.359375 480.98828125 C -337.76448075 488.82463396 -342.24780497 496.60964412 -346.796875 504.36328125 C -352.18751272 513.55485644 -357.42744404 522.82162758 -362.60913086 532.13232422 C -367.16740728 540.3027597 -371.86306206 548.38589473 -376.60058594 556.45336914 C -380.86113533 563.72792903 -385.00756419 571.06068521 -389.109375 578.42578125 C -393.28845972 585.92859249 -397.52023384 593.38756146 -401.90478516 600.77197266 C -405.83533537 607.40782354 -409.66265616 614.10181743 -413.484375 620.80078125 C -413.82482849 621.39750641 -414.16528198 621.99423157 -414.51605225 622.60903931 C -416.26556578 625.6760109 -418.01429707 628.74342766 -419.76269531 631.81103516 C -422.13209305 635.96756754 -424.50517445 640.12199061 -426.88011169 644.27536011 C -428.53232834 647.16492241 -430.18241921 650.05566043 -431.8293457 652.94824219 C -434.9210915 658.37433805 -438.02692742 663.78991682 -441.19265747 669.17324829 C -442.6710933 671.68963657 -444.14018705 674.21142045 -445.60864258 676.73364258 C -446.30486466 677.92353487 -447.00555184 679.11082846 -447.71118164 680.29516602 C -455.54778101 693.45345124 -459.40921596 706.42341169 -456.171875 721.80078125 C -451.77723493 734.14762717 -445.04757943 743.62836931 -433.51171875 750.234375 C -425.17560608 754.17530603 -418.81243154 754.91931876 -409.60481739 754.8713913 C -408.25554614 754.87513112 -406.906278 754.88018226 -405.55701599 754.88642013 C -401.84786004 754.89975722 -398.13892979 754.89444685 -394.42976793 754.88608664 C -390.3949415 754.88028141 -386.36015847 754.89182743 -382.32534379 754.90114832 C -375.25316621 754.9150682 -368.18105261 754.91779214 -361.10886383 754.91318893 C -350.59209234 754.90636143 -340.0753857 754.91660863 -329.55862321 754.93014649 C -309.68298269 754.95507339 -289.807369 754.95957467 -269.93171535 754.95768052 C -254.58351867 754.95630806 -239.23533131 754.96012212 -223.88713646 754.96760559 C -221.68294723 754.96865592 -219.478758 754.96970354 -217.27456876 754.97074845 C -215.63336643 754.97152747 -215.63336643 754.97152747 -213.95900849 754.97232222 C -212.86288189 754.97284237 -211.76675529 754.97336251 -210.63741273 754.97389841 C -209.53946497 754.9744224 -208.44151721 754.97494639 -207.3102983 754.97548627 C -176.42305109 754.9900727 -145.5358073 754.9983507 -114.64855671 754.99373627 C -112.90144983 754.99347833 -112.90144983 754.99347833 -111.11904787 754.99321519 C -105.21555716 754.99232629 -99.31206645 754.99138148 -93.40857575 754.99041718 C -92.23610358 754.99022615 -91.06363141 754.99003512 -89.85562977 754.98983829 C -87.48460473 754.9894512 -85.11357968 754.98906087 -82.74255463 754.98866732 C -45.85186301 754.98269769 -8.96123412 754.99813266 27.92944336 755.03027344 C 69.36792613 755.06634577 110.80636912 755.08568363 152.24486858 755.08073473 C 156.66301492 755.08026475 161.08116127 755.07985449 165.49930763 755.07948303 C 166.58718171 755.07938065 167.67505579 755.07927826 168.79589574 755.07917277 C 185.22270506 755.07797764 201.64947141 755.08994922 218.07626915 755.10862732 C 236.7585442 755.12985962 255.4407291 755.13371905 274.12300815 755.11432773 C 284.57833735 755.10399722 295.03344671 755.10748256 305.48875606 755.13085858 C 312.47429874 755.14509241 319.45967877 755.14112297 326.44521048 755.12241282 C 330.42434912 755.11226485 334.40305994 755.10992438 338.38217183 755.1297335 C 342.00801897 755.14762089 345.63308048 755.14215786 349.25888905 755.11870511 C 351.16508394 755.11221291 353.07131544 755.13004437 354.97742608 755.14910495 C 367.28607117 755.02135591 378.24283764 751.15970611 387.140625 742.48828125 C 395.45003173 733.46852762 400.38294262 722.68004729 400.515625 710.30078125 C 400.54398438 709.11097656 400.57234375 707.92117188 400.6015625 706.6953125 C 399.92985717 696.13359568 394.41057071 686.70726234 389.265625 677.73828125 C 388.59838108 676.55803524 387.93189186 675.37736229 387.26611328 674.19628906 C 382.35157693 665.50395386 377.32470837 656.87543041 372.26977539 648.26416016 C 368.34868592 641.58313142 364.50141145 634.86482387 360.703125 628.11328125 C 356.12675476 619.98052897 351.49935528 611.8794334 346.828125 603.80078125 C 341.59625626 594.75164606 336.38599069 585.69056043 331.203125 576.61328125 C 330.87195679 576.03335419 330.54078857 575.45342712 330.19958496 574.85592651 C 327.50883431 570.14368205 324.81950299 565.43062801 322.13024902 560.7175293 C 319.78020843 556.5990654 317.4296041 552.480924 315.078125 548.36328125 C 314.58084396 547.49246918 314.58084396 547.49246918 314.07351685 546.60406494 C 309.28435956 538.21950594 304.4710347 529.84914282 299.640625 521.48828125 C 292.43849706 509.02225902 285.29232824 496.52466881 278.15673828 484.02050781 C 276.15126686 480.50647446 274.144243 476.99332967 272.13671875 473.48046875 C 271.64202087 472.614823 271.64202087 472.614823 271.1373291 471.73168945 C 270.13845405 469.98387168 269.13954611 468.2360727 268.140625 466.48828125 C 264.46397318 460.05532021 260.78736093 453.62233953 257.11495972 447.18695068 C 250.31584542 435.2725198 243.50309327 423.36639321 236.640625 411.48828125 C 229.43849706 399.02225902 222.29232824 386.52466881 215.15673828 374.02050781 C 213.15126686 370.50647446 211.144243 366.99332967 209.13671875 363.48046875 C 208.64202087 362.614823 208.64202087 362.614823 208.1373291 361.73168945 C 207.13845405 359.98387168 206.13954611 358.2360727 205.140625 356.48828125 C 201.46397318 350.05532021 197.78736093 343.62233953 194.11495972 337.18695068 C 187.31584542 325.2725198 180.50309327 313.36639321 173.640625 301.48828125 C 166.43849706 289.02225902 159.29232824 276.52466881 152.15673828 264.02050781 C 150.15126686 260.50647446 148.14423969 256.99333156 146.13671875 253.48046875 C 145.6419529 252.61468704 145.6419529 252.61468704 145.13719177 251.73141479 C 143.47337141 248.8200404 141.80937206 245.90876837 140.14526367 242.99755859 C 137.12401247 237.71174297 134.10388695 232.42530005 131.08932495 227.13566589 C 129.39883425 224.16944731 127.70746565 221.20373005 126.015625 218.23828125 C 125.68306702 217.65533295 125.35050903 217.07238464 125.00787354 216.47177124 C 120.39274453 208.38582156 115.72440688 200.33255354 111.015625 192.30078125 C 105.68833558 183.21260925 100.51298962 174.04771966 95.39013672 164.84301758 C 91.39077321 157.67418918 87.2969962 150.56710095 83.140625 143.48828125 C 78.37632937 135.37409026 73.71650649 127.21018937 69.140625 118.98828125 C 64.04231576 109.8310481 58.82754445 100.75134955 53.52685547 91.70996094 C 49.05783382 84.0802866 44.64751353 76.41822245 40.265625 68.73828125 C 39.93492004 68.15894836 39.60421509 67.57961548 39.26348877 66.98272705 C 35.8127193 60.93710994 32.36747125 54.88836727 28.92721558 48.83676147 C 27.50736263 46.34006486 26.08579364 43.84434756 24.66400146 41.34875488 C 23.680693 39.62117685 22.69991156 37.89216122 21.71923828 36.16308594 C 7.7826397 11.12434692 7.7826397 11.12434692 -16.13671875 -3.58984375 C -36.49723407 -8.63190211 -54.28928903 -0.82619326 -66.859375 15.48828125 Z" stroke-linecap="round"/>
</g>
		<g transform="matrix(1 0 0 1 -54.9604 161)">
<path style="stroke: none; stroke-width: 1; stroke-dasharray: none; stroke-linecap: butt; stroke-dashoffset: 0; stroke-linejoin: miter; stroke-miterlimit: 4; is-custom-font: none; font-file-url: none; fill: rgb(250,250,250); fill-rule: nonzero; opacity: 1;" transform=" translate(-5.0396, -37)" d="M 0 0 C 3.96292146 3.63539531 6.13900526 8.26227266 8.6875 12.9375 C 9.21915771 13.91227295 9.75081543 14.8870459 10.29858398 15.89135742 C 17.80121677 29.92945573 24.04482693 45.0906376 27.6875 60.625 C 27.93886719 61.66914062 28.19023437 62.71328125 28.44921875 63.7890625 C 29 67 29 67 29 74 C 20.75 74 12.5 74 4 74 C 2.7625 70.24625 1.525 66.4925 0.25 62.625 C -4.67343661 48.08514096 -10.42116758 33.18651857 -18.21899414 19.92724609 C -19 18 -19 18 -18.82958984 15.93408203 C -17.82231824 13.58575784 -16.73880515 12.61714105 -14.7265625 11.0546875 C -14.0665625 10.53519531 -13.4065625 10.01570312 -12.7265625 9.48046875 C -12.03304688 8.95066406 -11.33953125 8.42085937 -10.625 7.875 C -9.93921875 7.33746094 -9.2534375 6.79992187 -8.546875 6.24609375 C -5.74717099 4.06188887 -2.95645387 1.97096925 0 0 Z" stroke-linecap="round"/>
</g>
		<g transform="matrix(1 0 0 1 124.5448 146)">
<path style="stroke: none; stroke-width: 1; stroke-dasharray: none; stroke-linecap: butt; stroke-dashoffset: 0; stroke-linejoin: miter; stroke-miterlimit: 4; is-custom-font: none; font-file-url: none; fill: rgb(250,250,250); fill-rule: nonzero; opacity: 1;" transform=" translate(8.4552, -31)" d="M 0 0 C 6.6 1.32 13.2 2.64 20 4 C 19.11601583 7.53593667 18.66402435 8.77928274 16.59375 11.50390625 C 16.10189209 12.15649414 15.61003418 12.80908203 15.10327148 13.48144531 C 14.57419189 14.16819336 14.0451123 14.85494141 13.5 15.5625 C 12.95609619 16.27631836 12.41219238 16.99013672 11.85180664 17.72558594 C 4.87643567 26.83736299 -2.39371636 35.58361482 -10.2109375 43.984375 C -12.1178348 46.03465812 -13.99460527 48.10750729 -15.8515625 50.203125 C -16.30732666 50.71488281 -16.76309082 51.22664062 -17.23266602 51.75390625 C -18.49289185 53.17168923 -19.74853565 54.59354118 -21.00390625 56.015625 C -23 58 -23 58 -25 58 C -25 58.66 -25 59.32 -25 60 C -26.32 60.66 -27.64 61.32 -29 62 C -29.96087136 60.10545176 -30.91858969 58.20930419 -31.875 56.3125 C -32.40867187 55.25675781 -32.94234375 54.20101562 -33.4921875 53.11328125 C -37.06325871 45.73985184 -37.06325871 45.73985184 -36.8203125 42.8984375 C -35.83441343 40.61678538 -34.67104464 39.34050452 -32.875 37.625 C -31.92367187 36.70847656 -31.92367187 36.70847656 -30.953125 35.7734375 C -29.21944438 34.19925549 -27.44530933 32.72155848 -25.625 31.25 C -15.58876871 22.74584827 -7.89961505 10.39423033 0 0 Z" stroke-linecap="round"/>
</g>
		<g transform="matrix(1 0 0 1 -161.0789 210)">
<path style="stroke: none; stroke-width: 1; stroke-dasharray: none; stroke-linecap: butt; stroke-dashoffset: 0; stroke-linejoin: miter; stroke-miterlimit: 4; is-custom-font: none; font-file-url: none; fill: rgb(249,249,249); fill-rule: nonzero; opacity: 1;" transform=" translate(-19.9211, -36)" d="M 0 0 C 6.27 0 12.54 0 19 0 C 19.598125 2.2275 20.19625 4.455 20.8125 6.75 C 23.20712543 15.16853795 26.30438254 23.29464084 29.5 31.4375 C 29.96253174 32.62118164 30.42506348 33.80486328 30.90161133 35.02441406 C 33.35215419 41.19088363 35.94824712 47.10783454 39.19726562 52.89868164 C 40.16809151 55.44001327 39.99437391 56.49859861 39 59 C 37.61308187 60.92842402 36.14518796 62.79979051 34.625 64.625 C 33.83351563 65.58664062 33.04203125 66.54828125 32.2265625 67.5390625 C 30 70 30 70 27 72 C 15.46797151 51.8771927 0 23.73689621 0 0 Z" stroke-linecap="round"/>
</g>
		<g transform="matrix(1 0 0 1 71.9714 220)">
<path style="stroke: none; stroke-width: 1; stroke-dasharray: none; stroke-linecap: butt; stroke-dashoffset: 0; stroke-linejoin: miter; stroke-miterlimit: 4; is-custom-font: none; font-file-url: none; fill: rgb(7,7,7); fill-rule: nonzero; opacity: 1;" transform=" translate(-21.9714, -44)" d="M 0 0 C 3.94243628 1.31414543 4.15855772 2.67924527 6.00390625 6.3359375 C 6.57447754 7.45323242 7.14504883 8.57052734 7.73291016 9.72167969 C 8.34284862 10.93941547 8.95271015 12.15718979 9.5625 13.375 C 10.19472595 14.61936178 10.82803472 15.86317398 11.46240234 17.10644531 C 12.72974441 19.59158216 13.99304872 22.078703 15.25341797 24.56738281 C 17.50104176 28.98471444 19.80380172 33.37101546 22.125 37.75 C 24.78733048 42.78970711 27.43821796 47.83504774 30.0703125 52.890625 C 30.59866699 53.90543945 31.12702148 54.92025391 31.67138672 55.96582031 C 32.68696269 57.91781198 33.70168119 59.87025013 34.71533203 61.82324219 C 35.18567871 62.72719727 35.65602539 63.63115234 36.140625 64.5625 C 36.60146484 65.45066406 37.06230469 66.33882812 37.53710938 67.25390625 C 38.57096868 69.19463546 39.63820407 71.11775855 40.72851562 73.02734375 C 41.28732422 74.00832031 41.84613281 74.98929688 42.421875 76 C 42.9384668 76.886875 43.45505859 77.77375 43.98730469 78.6875 C 45 81 45 81 44 84 C 41.93359375 85.16796875 41.93359375 85.16796875 39.4375 86.1875 C 38.19806641 86.70376953 38.19806641 86.70376953 36.93359375 87.23046875 C 36.29550781 87.48441406 35.65742187 87.73835937 35 88 C 26.98010393 70.09968045 19.33574388 52.04605473 11.72729492 33.96801758 C 11.33165848 33.02842697 10.93602203 32.08883636 10.52839661 31.12077332 C 9.75485013 29.28159661 8.98283238 27.4417761 8.21244812 25.60127258 C 6.53573365 21.60270512 4.84228946 17.61702522 3.05712891 13.66552734 C 2.76792068 13.01863449 2.47871246 12.37174164 2.18074036 11.70524597 C 1.4268552 10.02814597 0.65993999 8.35691942 -0.1081543 6.6862793 C -1.03876932 3.88322506 -1.07308553 2.70394904 0 0 Z" stroke-linecap="round"/>
</g>
		<g transform="matrix(1 0 0 1 47.5 222)">
<path style="stroke: none; stroke-width: 1; stroke-dasharray: none; stroke-linecap: butt; stroke-dashoffset: 0; stroke-linejoin: miter; stroke-miterlimit: 4; is-custom-font: none; font-file-url: none; fill: rgb(12,12,12); fill-rule: nonzero; opacity: 1;" transform=" translate(-10.5, -47)" d="M 0 0 C 1.32 0 2.64 0 4 0 C 7.65840195 18.12513527 11.21224881 36.26969057 14.72375488 54.42375183 C 15.6587789 59.25324841 16.60554994 64.08027673 17.55859375 68.90625 C 17.79320312 70.10258057 18.0278125 71.29891113 18.26953125 72.53149414 C 18.70208879 74.73712656 19.13806681 76.94209206 19.578125 79.14624023 C 19.76761719 80.11762939 19.95710938 81.08901855 20.15234375 82.08984375 C 20.31726318 82.92378662 20.48218262 83.75772949 20.65209961 84.61694336 C 21 87 21 87 21 92 C 15.555 92.99 15.555 92.99 10 94 C 6.21704102 59.95336914 6.21704102 59.95336914 5.98414421 57.85723686 C 5.82925103 56.46323896 5.67433997 55.06924304 5.51941109 53.6752491 C 5.13336055 50.20150438 4.74761824 46.72772597 4.36251831 43.25387573 C 3.61521304 36.51562845 2.86309603 29.77799432 2.10009766 23.04150391 C 1.95981644 21.79701981 1.81953522 20.55253571 1.67500305 19.27033997 C 1.41150889 16.93443093 1.14629554 14.59871495 0.8790741 12.26322937 C 0.76276138 11.22930557 0.64644867 10.19538177 0.52661133 9.13012695 C 0.42439774 8.23115189 0.32218414 7.33217682 0.21687317 6.40596008 C 0 4 0 4 0 0 Z" stroke-linecap="round"/>
</g>
		<g transform="matrix(1 0 0 1 88 202)">
<path style="stroke: none; stroke-width: 1; stroke-dasharray: none; stroke-linecap: butt; stroke-dashoffset: 0; stroke-linejoin: miter; stroke-miterlimit: 4; is-custom-font: none; font-file-url: none; fill: rgb(8,8,8); fill-rule: nonzero; opacity: 1;" transform=" translate(-34, -37)" d="M 0 0 C 3.0818665 1.37213013 5.17492795 2.93378899 7.54003906 5.32885742 C 8.21464172 6.00683884 8.88924438 6.68482025 9.58428955 7.38334656 C 10.30413025 8.11664688 11.02397095 8.8499472 11.765625 9.60546875 C 12.51785339 10.36289871 13.27008179 11.12032867 14.04510498 11.90071106 C 16.45153225 14.32494306 18.85119238 16.75572983 21.25 19.1875 C 23.63533204 21.60059092 26.02215052 24.01216121 28.41204834 26.42073059 C 29.89752375 27.91830564 31.38032038 29.41854445 32.85992432 30.92192078 C 36.82421475 34.92388586 40.89465067 38.7140721 45.16204834 42.3903656 C 47.75202457 44.65860525 50.16615123 47.05404499 52.59375 49.49609375 C 53.07074341 49.97450211 53.54773682 50.45291046 54.03918457 50.94581604 C 55.52853695 52.44066514 57.01433149 53.93899059 58.5 55.4375 C 59.52320139 56.4657298 60.54663733 57.49372626 61.5703125 58.52148438 C 64.04957999 61.01164338 66.52567538 63.50492833 69 66 C 66.26051393 69.57655126 64.00844582 71.88443137 60 74 C 54.18035974 67.71867638 48.59447736 61.34904488 43.21484375 54.68359375 C 41.04367173 52.05291443 38.79758643 49.52057576 36.5 47 C 33.47717579 43.68010514 30.57487839 40.30235888 27.75 36.8125 C 24.12732624 32.33780367 20.40424363 27.9669802 16.625 23.625 C 16.07859863 22.994729 15.53219727 22.36445801 14.96923828 21.71508789 C 12.2236208 18.54909072 9.4658976 15.39508646 6.6875 12.2578125 C 5.66634577 11.0888219 4.64549813 9.9195634 3.625 8.75 C 3.14240723 8.2132666 2.65981445 7.6765332 2.16259766 7.12353516 C 0.8515625 5.609375 0.8515625 5.609375 -1 3 C -0.67 2.01 -0.34 1.02 0 0 Z" stroke-linecap="round"/>
</g>
		<g transform="matrix(1 0 0 1 85.5 58.5)">
<path style="stroke: none; stroke-width: 1; stroke-dasharray: none; stroke-linecap: butt; stroke-dashoffset: 0; stroke-linejoin: miter; stroke-miterlimit: 4; is-custom-font: none; font-file-url: none; fill: rgb(247,247,247); fill-rule: nonzero; opacity: 1;" transform=" translate(-23.5, -23.5)" d="M 0 0 C 11.02961324 8.1619138 21.72333623 16.74305061 32.35351562 25.41503906 C 37.18076807 29.3487971 42.05120339 33.21966926 47 37 C 44.75421558 40.40739705 42.48862878 43.76478258 40 47 C 35.43940942 45.07514642 32.01818266 41.71668261 28.34643555 38.49365234 C 25.53284186 36.05491961 22.76409955 33.77407835 19.609375 31.7890625 C 9.06863719 24.87014218 3.99887282 14.85394856 0 3 C 0 2.01 0 1.02 0 0 Z" stroke-linecap="round"/>
</g>
		<g transform="matrix(1 0 0 1 -115.5 229.5266)">
<path style="stroke: none; stroke-width: 1; stroke-dasharray: none; stroke-linecap: butt; stroke-dashoffset: 0; stroke-linejoin: miter; stroke-miterlimit: 4; is-custom-font: none; font-file-url: none; fill: rgb(248,248,248); fill-rule: nonzero; opacity: 1;" transform=" translate(23.5, -13.5266)" d="M 0 0 C 1.31626692 3.61973402 2 6.09567131 2 10 C -3.21025445 11.92088066 -8.42062706 13.84144037 -13.63110352 15.76171875 C -15.39903869 16.41332592 -17.16694305 17.06501671 -18.93481445 17.71679688 C -19.78970459 18.03197266 -20.64459473 18.34714844 -21.52539062 18.671875 C -22.37084442 18.98362671 -23.21629822 19.29537842 -24.08737183 19.61657715 C -25.76270173 20.23360474 -27.43841859 20.84958275 -29.11453247 21.46447754 C -32.62226284 22.75148621 -36.12427563 24.0474742 -39.61474609 25.38085938 C -41.09515381 25.94256836 -41.09515381 25.94256836 -42.60546875 26.515625 C -43.83559692 26.99177246 -43.83559692 26.99177246 -45.09057617 27.47753906 C -47 28 -47 28 -49 27 C -47.78609176 24.7197803 -46.55517329 22.45197647 -45.3125 20.1875 C -44.97283203 19.54490234 -44.63316406 18.90230469 -44.28320312 18.24023438 C -43.93837891 17.61826172 -43.59355469 16.99628906 -43.23828125 16.35546875 C -42.92930908 15.78465576 -42.62033691 15.21384277 -42.30200195 14.62573242 C -39.00129555 10.5043366 -33.72555966 8.99369044 -28.90625 7.265625 C -28.23710571 7.02334167 -27.56796143 6.78105835 -26.87854004 6.53143311 C -25.47101099 6.02440583 -24.06241834 5.52032246 -22.65283203 5.01904297 C -20.50198721 4.25070988 -18.3585894 3.46367036 -16.21484375 2.67578125 C -14.84156183 2.18373327 -13.46787661 1.69280909 -12.09375 1.203125 C -10.85302734 0.75614258 -9.61230469 0.30916016 -8.33398438 -0.15136719 C -5.00642654 -0.99836419 -3.2369673 -1.00367505 0 0 Z" stroke-linecap="round"/>
</g>
		<g transform="matrix(1 0 0 1 -84.5 46.5)">
<path style="stroke: none; stroke-width: 1; stroke-dasharray: none; stroke-linecap: butt; stroke-dashoffset: 0; stroke-linejoin: miter; stroke-miterlimit: 4; is-custom-font: none; font-file-url: none; fill: rgb(7,7,7); fill-rule: nonzero; opacity: 1;" transform=" translate(-24.5, -28.5)" d="M 0 0 C 3.16595997 1.40072977 5.30012826 3.05166694 7.73950195 5.49658203 C 8.45737381 6.21137726 9.17524567 6.92617249 9.91487122 7.66262817 C 10.68159653 8.436539 11.44832184 9.21044983 12.23828125 10.0078125 C 13.43676949 11.20698807 13.43676949 11.20698807 14.6594696 12.4303894 C 16.35046528 14.12440595 18.03903004 15.82085203 19.7253418 17.51953125 C 22.28714326 20.0994638 24.85672977 22.67142961 27.42773438 25.2421875 C 29.07338683 26.89276054 30.71858364 28.54378802 32.36328125 30.1953125 C 33.50426018 31.33796066 33.50426018 31.33796066 34.66828918 32.50369263 C 38.7860544 36.65757734 42.74634176 40.89490393 46.55609131 45.33370972 C 48.26845842 47.30980467 50.06990866 49.17052277 51.9375 51 C 52.81728516 51.86625 52.81728516 51.86625 53.71484375 52.75 C 54.35099609 53.36875 54.35099609 53.36875 55 54 C 54.67 54.99 54.34 55.98 54 57 C 51.1572672 55.68127483 48.85371083 54.20834765 46.453125 52.19921875 C 45.78144287 51.64097412 45.10976074 51.08272949 44.41772461 50.50756836 C 43.70237549 49.9069458 42.98702637 49.30632324 42.25 48.6875 C 40.71524271 47.41097851 39.18007707 46.13494784 37.64453125 44.859375 C 36.86803223 44.21291016 36.0915332 43.56644531 35.29150391 42.90039062 C 31.86015718 40.05470525 28.40101397 37.24388078 24.9375 34.4375 C 23.62496305 33.3737435 22.31246317 32.30994127 21 31.24609375 C 20.34773438 30.71741699 19.69546875 30.18874023 19.0234375 29.64404297 C 16.90760015 27.92492512 14.79705554 26.19947543 12.6875 24.47265625 C 11.6202771 23.60072632 11.6202771 23.60072632 10.53149414 22.71118164 C 9.18295698 21.60917663 7.83568682 20.50561843 6.48999023 19.40014648 C 2.43661831 16.09231965 -1.71388591 13.00083148 -6 10 C -4.34832443 6.4213696 -2.21713508 3.25179812 0 0 Z" stroke-linecap="round"/>
</g>
		<g transform="matrix(1 0 0 1 -99 61.5)">
<path style="stroke: none; stroke-width: 1; stroke-dasharray: none; stroke-linecap: butt; stroke-dashoffset: 0; stroke-linejoin: miter; stroke-miterlimit: 4; is-custom-font: none; font-file-url: none; fill: rgb(10,10,10); fill-rule: nonzero; opacity: 1;" transform=" translate(-33, -20.5)" d="M 0 0 C 3.80560234 0.58066603 6.526577 1.66421734 9.82421875 3.6328125 C 10.75758057 4.18428955 11.69094238 4.7357666 12.65258789 5.30395508 C 13.65410889 5.9048999 14.65562988 6.50584473 15.6875 7.125 C 17.84589415 8.40312091 20.00476535 9.68043649 22.1640625 10.95703125 C 23.84483887 11.95404053 23.84483887 11.95404053 25.55957031 12.97119141 C 31.2006876 16.29773729 36.88346477 19.55127596 42.5625 22.8125 C 46.71038646 25.20479083 50.85562812 27.60162687 55 30 C 55.8573877 30.495 56.71477539 30.99 57.59814453 31.5 C 59.77867641 32.76267279 61.95307309 34.03510025 64.125 35.3125 C 64.74060791 35.66739502 65.35621582 36.02229004 65.99047852 36.38793945 C 67.3619581 37.20242748 68.68797511 38.09284088 70 39 C 70 39.66 70 40.32 70 41 C 66.31158829 40.37596935 63.13258832 39.34253785 59.69750977 37.87036133 C 58.6619545 37.42932571 57.62639923 36.9882901 56.5594635 36.53388977 C 55.44800461 36.05477646 54.33654572 35.57566315 53.19140625 35.08203125 C 52.03309799 34.58716721 50.87478973 34.09230316 49.68138123 33.58244324 C 46.59955139 32.26476593 43.51955386 30.94297536 40.44036865 29.61914062 C 37.3556006 28.29407498 34.26850125 26.97448047 31.18164062 25.65429688 C 26.49614672 23.65029006 21.81384395 21.63907337 17.13330078 19.62353516 C 13.49773041 18.06091 9.8562684 16.52020931 6.19091797 15.02880859 C 5.52124496 14.75348801 4.85157196 14.47816742 4.16160583 14.19450378 C 2.50816929 13.51808093 0.84991825 12.85345649 -0.80883789 12.19018555 C -3 11 -3 11 -4 8 C -3.22265625 5.95703125 -3.22265625 5.95703125 -2.0625 3.8125 C -1.68222656 3.09707031 -1.30195313 2.38164062 -0.91015625 1.64453125 C -0.60980469 1.10183594 -0.30945313 0.55914062 0 0 Z" stroke-linecap="round"/>
</g>
		<g transform="matrix(1 0 0 1 126 92.2969)">
<path style="stroke: none; stroke-width: 1; stroke-dasharray: none; stroke-linecap: butt; stroke-dashoffset: 0; stroke-linejoin: miter; stroke-miterlimit: 4; is-custom-font: none; font-file-url: none; fill: rgb(246,246,246); fill-rule: nonzero; opacity: 1;" transform=" translate(-15, -17.2969)" d="M 0 0 C 1.3921875 1.2065625 1.3921875 1.2065625 2.8125 2.4375 C 5.86777603 5.06418019 8.98471221 7.60081552 12.125 10.125 C 17.06995498 14.14917026 21.76589683 18.38606255 26.40869141 22.75048828 C 29.8392555 25.96900868 33.36056309 29.018817 37 32 C 31.85832957 35.42778029 25.98336967 34.71613037 20 34 C 16.61702974 32.66213545 14.52430236 30.58451507 12 28 C 10.94776089 26.95977667 9.89426144 25.92082745 8.83984375 24.8828125 C 6.58499709 22.65153677 4.36042137 20.39475696 2.1484375 18.12109375 C -0.74007207 15.1901857 -3.79746553 12.58222374 -7 10 C -5.33248852 6.05860922 -2.77289351 3.2107188 0 0 Z" stroke-linecap="round"/>
</g>
		<g transform="matrix(1 0 0 1 -146.5 157.2463)">
<path style="stroke: none; stroke-width: 1; stroke-dasharray: none; stroke-linecap: butt; stroke-dashoffset: 0; stroke-linejoin: miter; stroke-miterlimit: 4; is-custom-font: none; font-file-url: none; fill: rgb(245,245,245); fill-rule: nonzero; opacity: 1;" transform=" translate(23.5, -12.2463)" d="M 0 0 C 0.99 3.3 1.98 6.6 3 10 C -1.23999619 12.01601842 -5.48992747 14.00873034 -9.75024414 15.98144531 C -11.19518613 16.65432152 -12.63732367 17.33325697 -14.07641602 18.01855469 C -28.82274259 25.0313658 -28.82274259 25.0313658 -37 24 C -38.1446875 23.87882813 -39.289375 23.75765625 -40.46875 23.6328125 C -41.4690625 23.46523438 -42.469375 23.29765625 -43.5 23.125 C -45.03140625 22.88136719 -45.03140625 22.88136719 -46.59375 22.6328125 C -47.78484375 22.31957031 -47.78484375 22.31957031 -49 22 C -49.33 21.34 -49.66 20.68 -50 20 C -42.81489503 16.82460389 -35.62501252 13.66025834 -28.43066406 10.50585938 C -26.22588422 9.53809094 -24.02202766 8.56821485 -21.81933594 7.59570312 C -18.94509149 6.32757195 -16.06691872 5.06882896 -13.1875 3.8125 C -12.31778564 3.42650635 -11.44807129 3.0405127 -10.55200195 2.64282227 C -9.744646 2.29276123 -8.93729004 1.9427002 -8.10546875 1.58203125 C -7.40574951 1.27499268 -6.70603027 0.9679541 -5.98510742 0.65161133 C -4 0 -4 0 0 0 Z" stroke-linecap="round"/>
</g>
		<g transform="matrix(1 0 0 1 73.3961 155)">
<path style="stroke: none; stroke-width: 1; stroke-dasharray: none; stroke-linecap: butt; stroke-dashoffset: 0; stroke-linejoin: miter; stroke-miterlimit: 4; is-custom-font: none; font-file-url: none; fill: rgb(247,247,247); fill-rule: nonzero; opacity: 1;" transform=" translate(-14.3961, -20)" d="M 0 0 C 4.18908653 1.91014781 7.40718927 4.62596314 10.9375 7.546875 C 13.19768047 9.35732568 15.44832313 11.04162098 17.8125 12.703125 C 25.984811 18.58758854 30.64117922 23.2504291 33.62890625 32.96875 C 34.02089132 36.17064911 33.7923864 37.37887581 32 40 C 28.32043709 38.43767979 25.83484207 36.16415918 22.9375 33.4375 C 19.22521409 29.98537429 15.45183862 26.68074816 11.5 23.5 C 5.78416904 18.88939465 0.38521588 13.9893973 -5 9 C -4.21616433 5.13857796 -2.57189568 2.98671756 0 0 Z" stroke-linecap="round"/>
</g>
		<g transform="matrix(1 0 0 1 -88 86.5)">
<path style="stroke: none; stroke-width: 1; stroke-dasharray: none; stroke-linecap: butt; stroke-dashoffset: 0; stroke-linejoin: miter; stroke-miterlimit: 4; is-custom-font: none; font-file-url: none; fill: rgb(10,10,10); fill-rule: nonzero; opacity: 1;" transform=" translate(-39, -7.5)" d="M 0 0 C 9.31233952 0.63665995 18.4179959 1.936967 27.609375 3.50390625 C 29.07188847 3.74952873 30.53447538 3.99471425 31.99713135 4.23948669 C 35.80518345 4.87793958 39.61222344 5.52223453 43.41906738 6.16784668 C 47.32043886 6.8283931 51.22276029 7.4832778 55.125 8.13867188 C 62.75092869 9.42031305 70.37579474 10.70814157 78 12 C 78 12.99 78 13.98 78 15 C 60.1086268 14.38473271 42.24488341 13.50199723 24.375 12.4375 C 21.98829527 12.29728719 19.60157655 12.15731238 17.21484375 12.01757812 C 11.47639856 11.68111004 5.73814857 11.34148762 0 11 C 0 7.37 0 3.74 0 0 Z" stroke-linecap="round"/>
</g>
		<g transform="matrix(1 0 0 1 -63.5 212.7846)">
<path style="stroke: none; stroke-width: 1; stroke-dasharray: none; stroke-linecap: butt; stroke-dashoffset: 0; stroke-linejoin: miter; stroke-miterlimit: 4; is-custom-font: none; font-file-url: none; fill: rgb(248,248,248); fill-rule: nonzero; opacity: 1;" transform=" translate(27.5, -10.7845)" d="M 0 0 C -9.0112236 7.6803827 -21.15668848 11.37661145 -32.11547852 15.57958984 C -34.22576482 16.38968914 -36.33269566 17.20811655 -38.43945312 18.02734375 C -39.78627084 18.54736085 -41.13326911 19.06691065 -42.48046875 19.5859375 C -43.68598389 20.0504834 -44.89149902 20.5150293 -46.13354492 20.99365234 C -49 22 -49 22 -51 22 C -51.67119549 20.5437455 -52.33681807 19.08492133 -53 17.625 C -53.37125 16.81289063 -53.7425 16.00078125 -54.125 15.1640625 C -55 13 -55 13 -55 11 C -36.24106783 2.57945046 -20.90504111 -1.89419648 0 0 Z" stroke-linecap="round"/>
</g>
		<g transform="matrix(1 0 0 1 -93 138.6019)">
<path style="stroke: none; stroke-width: 1; stroke-dasharray: none; stroke-linecap: butt; stroke-dashoffset: 0; stroke-linejoin: miter; stroke-miterlimit: 4; is-custom-font: none; font-file-url: none; fill: rgb(247,247,247); fill-rule: nonzero; opacity: 1;" transform=" translate(25, -13.6019)" d="M 0 0 C -12.60158613 15.37931457 -25.76354904 22.97352623 -45 28 C -45.66 28 -46.32 28 -47 28 C -50 21.5 -50 21.5 -50 17 C -38.53949959 12.32171135 -27.0203634 7.8044404 -15.4375 3.4375 C -14.25438232 2.98391113 -13.07126465 2.53032227 -11.85229492 2.06298828 C -10.74474854 1.64903809 -9.63720215 1.23508789 -8.49609375 0.80859375 C -7.50794678 0.43532959 -6.5197998 0.06206543 -5.50170898 -0.32250977 C -3 -1 -3 -1 0 0 Z" stroke-linecap="round"/>
</g>
		<g transform="matrix(1 0 0 1 -89 225.5)">
<path style="stroke: none; stroke-width: 1; stroke-dasharray: none; stroke-linecap: butt; stroke-dashoffset: 0; stroke-linejoin: miter; stroke-miterlimit: 4; is-custom-font: none; font-file-url: none; fill: rgb(19,19,19); fill-rule: nonzero; opacity: 1;" transform=" translate(46, -19.5)" d="M 0 0 C 0.99 0.495 0.99 0.495 2 1 C 2 1.66 2 2.32 2 3 C -18.74495419 12.40622987 -39.79218499 20.66876983 -61.25 28.3125 C -62.42573578 28.73181793 -63.60147156 29.15113586 -64.81283569 29.5831604 C -68.19129519 30.78539105 -71.57153891 31.98237548 -74.953125 33.17578125 C -75.96536636 33.53349609 -76.97760773 33.89121094 -78.02052307 34.25976562 C -82.98001681 35.99702957 -87.92737934 37.62605504 -93 39 C -93.495 37.515 -93.495 37.515 -94 36 C -92.91581787 35.62190186 -91.83163574 35.24380371 -90.71459961 34.85424805 C -86.66766684 33.44218418 -82.62187822 32.02686655 -78.57641602 30.6105957 C -76.82997868 29.99969002 -75.08323799 29.38965079 -73.33618164 28.78051758 C -70.81575311 27.90156574 -68.2964552 27.01943726 -65.77734375 26.13671875 C -65.00414291 25.86784348 -64.23094208 25.5989682 -63.43431091 25.32194519 C -59.94088654 24.09471849 -56.52008451 22.81550699 -53.13891602 21.30395508 C -50 20 -50 20 -47 20 C -47.20625 18.88625 -47.4125 17.7725 -47.625 16.625 C -47.74875 15.42875 -47.8725 14.2325 -48 13 C -47.34 12.34 -46.68 11.68 -46 11 C -45.34 13.31 -44.68 15.62 -44 18 C -39.50018632 16.24402208 -35.00198296 14.4839974 -30.50512695 12.72045898 C -28.98015589 12.12303274 -27.4547757 11.52664961 -25.92895508 10.93139648 C -23.71582936 10.06779081 -21.50398746 9.20101653 -19.29296875 8.33203125 C -18.575112 8.05013947 -17.85725525 7.76824768 -17.11764526 7.47781372 C -11.97675728 5.43849166 -6.96243181 3.19713758 -1.99731445 0.7565918 C -1.33820068 0.5069165 -0.67908691 0.25724121 0 0 Z" stroke-linecap="round"/>
</g>
		<g transform="matrix(1 0 0 1 -92.5 131.6085)">
<path style="stroke: none; stroke-width: 1; stroke-dasharray: none; stroke-linecap: butt; stroke-dashoffset: 0; stroke-linejoin: miter; stroke-miterlimit: 4; is-custom-font: none; font-file-url: none; fill: rgb(25,25,25); fill-rule: nonzero; opacity: 1;" transform=" translate(24.5, -9.6086)" d="M 0 0 C 0.495 0.99 0.495 0.99 1 2 C 0.43941895 2.18997559 -0.12116211 2.37995117 -0.69873047 2.57568359 C -13.83208093 7.04362131 -26.83238173 11.77243962 -39.74365234 16.84912109 C -41.31880615 17.4652124 -41.31880615 17.4652124 -42.92578125 18.09375 C -43.85817627 18.46177734 -44.79057129 18.82980469 -45.7512207 19.20898438 C -48 20 -48 20 -50 20 C -49.87890625 18.16162109 -49.87890625 18.16162109 -49 16 C -46.40234375 14.63134766 -46.40234375 14.63134766 -42.9375 13.4140625 C -42.31824646 13.19142731 -41.69899292 12.96879211 -41.06097412 12.7394104 C -39.04578553 12.01905356 -37.02345774 11.32175274 -35 10.625 C -33.6235464 10.13904439 -32.24756891 9.65173814 -30.87207031 9.16308594 C -28.15905864 8.20171989 -25.44322328 7.24911343 -22.72460938 6.30371094 C -19.57140133 5.20000545 -16.43116468 4.07007723 -13.296875 2.9140625 C -11.78125929 2.35934963 -10.26563526 1.80465947 -8.75 1.25 C -8.07324219 0.99814941 -7.39648438 0.74629883 -6.69921875 0.48681641 C -2.22793748 -1.11396874 -2.22793748 -1.11396874 0 0 Z" stroke-linecap="round"/>
</g>
		<g transform="matrix(1 0 0 1 -120 238.1121)">
<path style="stroke: none; stroke-width: 1; stroke-dasharray: none; stroke-linecap: butt; stroke-dashoffset: 0; stroke-linejoin: miter; stroke-miterlimit: 4; is-custom-font: none; font-file-url: none; fill: rgb(29,29,29); fill-rule: nonzero; opacity: 1;" transform=" translate(17, -6.1122)" d="M 0 0 C -2.61066656 3.18259838 -5.51973098 4.13192465 -9.34765625 5.48046875 C -10.26640785 5.80704216 -10.26640785 5.80704216 -11.20372009 6.14021301 C -12.4941772 6.59709378 -13.78609397 7.04987002 -15.0793457 7.4987793 C -17.06208329 8.18735528 -19.04004557 8.88842868 -21.01757812 9.59179688 C -30.70008744 13 -30.70008744 13 -33 13 C -33.33 12.01 -33.66 11.02 -34 10 C -29.64422893 8.40340335 -25.28433544 6.81885709 -20.92016602 5.24536133 C -19.4358948 4.70829698 -17.95280773 4.16794829 -16.47094727 3.62426758 C -14.34172882 2.84372048 -12.20854275 2.07505188 -10.07421875 1.30859375 C -9.41161545 1.06282089 -8.74901215 0.81704803 -8.06632996 0.56382751 C -3.34161512 -1.11387171 -3.34161512 -1.11387171 0 0 Z" stroke-linecap="round"/>
</g>
		<g transform="matrix(1 0 0 1 -106.5 136.6291)">
<path style="stroke: none; stroke-width: 1; stroke-dasharray: none; stroke-linecap: butt; stroke-dashoffset: 0; stroke-linejoin: miter; stroke-miterlimit: 4; is-custom-font: none; font-file-url: none; fill: rgb(19,19,19); fill-rule: nonzero; opacity: 1;" transform=" translate(11.5, -4.6291)" d="M 0 0 C -2.19415015 2.45248876 -4.09645203 3.65241226 -7.16015625 4.82421875 C -7.95357422 5.13037109 -8.74699219 5.43652344 -9.56445312 5.75195312 C -10.38880859 6.06068359 -11.21316406 6.36941406 -12.0625 6.6875 C -12.89072266 7.00783203 -13.71894531 7.32816406 -14.57226562 7.65820312 C -20.70887193 10 -20.70887193 10 -23 10 C -22.75927734 8.12231445 -22.75927734 8.12231445 -22 6 C -20.18994141 4.88745117 -20.18994141 4.88745117 -17.8515625 4.04296875 C -17.01109375 3.73552734 -16.170625 3.42808594 -15.3046875 3.11132812 C -14.42039062 2.80646484 -13.53609375 2.50160156 -12.625 2.1875 C -11.7484375 1.86330078 -10.871875 1.53910156 -9.96875 1.20507812 C -3.40992698 -1.13664233 -3.40992698 -1.13664233 0 0 Z" stroke-linecap="round"/>
</g>
		<g transform="matrix(1 0 0 1 -51.5 211.5)">
<path style="stroke: none; stroke-width: 1; stroke-dasharray: none; stroke-linecap: butt; stroke-dashoffset: 0; stroke-linejoin: miter; stroke-miterlimit: 4; is-custom-font: none; font-file-url: none; fill: rgb(30,30,30); fill-rule: nonzero; opacity: 1;" transform=" translate(8.5, -5.5)" d="M 0 0 C 0.66 0.33 1.32 0.66 2 1 C 2 1.66 2 2.32 2 3 C -0.95564708 4.33934716 -3.9149378 5.67044247 -6.875 7 C -7.71675781 7.3815625 -8.55851562 7.763125 -9.42578125 8.15625 C -10.23144531 8.5171875 -11.03710938 8.878125 -11.8671875 9.25 C -12.61081543 9.58515625 -13.35444336 9.9203125 -14.12060547 10.265625 C -16 11 -16 11 -18 11 C -18.33 10.01 -18.66 9.02 -19 8 C -17.96359375 7.59007812 -16.9271875 7.18015625 -15.859375 6.7578125 C -14.48954661 6.2136341 -13.11975698 5.66935813 -11.75 5.125 C -11.06808594 4.85558594 -10.38617188 4.58617187 -9.68359375 4.30859375 C -6.93903324 3.21609879 -4.24941231 2.13296484 -1.640625 0.7421875 C -1.09921875 0.49726562 -0.5578125 0.25234375 0 0 Z" stroke-linecap="round"/>
</g>
		<g transform="matrix(1 0 0 1 -93 131.625)">
<path style="stroke: none; stroke-width: 1; stroke-dasharray: none; stroke-linecap: butt; stroke-dashoffset: 0; stroke-linejoin: miter; stroke-miterlimit: 4; is-custom-font: none; font-file-url: none; fill: rgb(30,30,30); fill-rule: nonzero; opacity: 1;" transform=" translate(3, -1.625)" d="M 0 0 C -2 3 -2 3 -4.125 3.6875 C -4.74375 3.790625 -5.3625 3.89375 -6 4 C -6 2.68 -6 1.36 -6 0 C -3 -1 -3 -1 0 0 Z" stroke-linecap="round"/>
</g>
</g>
</g>
</svg>