<?xml version="1.0" encoding="utf-8"?>
<!-- Generator: Adobe Illustrator 26.0.1, SVG Export Plug-In . SVG Version: 6.00 Build 0)  -->
<svg version="1.1" id="Layer_1" xmlns="http://www.w3.org/2000/svg" xmlns:xlink="http://www.w3.org/1999/xlink" x="0px" y="0px"
	 viewBox="0 0 20 20" style="enable-background:new 0 0 20 20;" xml:space="preserve">
<style type="text/css">
	.st0{fill:#009444;stroke:#FFFFFF;stroke-width:0.5;stroke-miterlimit:10;}
	.st1{fill:#FFFFFF;}
</style>
<g>
	<g>
		<path class="st0" d="M9.3,0.8L0.4,16.1c-0.3,0.5,0.1,1.2,0.7,1.2h17.7c0.6,0,1-0.7,0.7-1.2L10.7,0.8C10.4,0.3,9.6,0.3,9.3,0.8z"/>
		<polygon class="st1" points="10,4.3 3.2,15.7 16.8,15.7 		"/>
		<g>
			<g>
				<path d="M10,15.2c-0.5,0-0.8-0.3-0.8-0.8c0-0.5,0.3-0.8,0.8-0.8c0.5,0,0.8,0.4,0.8,0.8C10.8,14.9,10.5,15.2,10,15.2z M10,6.3
					c0.4,0,0.8,0.1,0.8,0.4c0,0.1,0,0.3,0,0.5c-0.1,1-0.4,3.4-0.5,4.9H9.7c-0.1-1.6-0.4-3.9-0.5-4.9c0-0.2,0-0.4,0-0.5
					C9.2,6.4,9.6,6.3,10,6.3z"/>
			</g>
		</g>
	</g>
</g>
</svg>
